<svg version="1.1" id="Layer_1" xmlns="http://www.w3.org/2000/svg" xmlns:xlink="http://www.w3.org/1999/xlink" x="0px" y="0px"
	 width="100%" viewBox="0 0 1335 1469" enable-background="new 0 0 1335 1469" xml:space="preserve">
<path fill="#000000" opacity="1.000000" stroke="none" 
	d="
M680.000000,1470.000000 
	C453.333374,1470.000000 227.166748,1470.000000 1.000091,1470.000000 
	C1.000061,980.333435 1.000061,490.666931 1.000030,1.000288 
	C445.999786,1.000192 890.999573,1.000192 1335.999512,1.000096 
	C1335.999756,490.666382 1335.999756,980.332764 1335.999878,1469.999512 
	C1117.500000,1470.000000 899.000000,1470.000000 680.000000,1470.000000 
M612.500000,889.998352 
	C606.501404,889.998718 600.502808,889.987915 594.504211,890.002258 
	C587.034180,890.020203 587.007874,890.029175 587.006104,897.398865 
	C586.995911,939.889099 587.004761,982.379395 586.992493,1024.869629 
	C586.990417,1031.959839 586.956848,1031.986938 579.720581,1031.991333 
	C556.725891,1032.005249 533.731140,1032.003296 510.736420,1031.993774 
	C503.029053,1031.990601 503.008148,1031.971924 503.006500,1024.325806 
	C502.997345,981.668945 502.944916,939.011841 503.075653,896.355408 
	C503.089783,891.749939 501.921509,889.857727 496.948395,889.909546 
	C475.622253,890.131775 454.291687,890.104126 432.964752,889.924927 
	C428.419556,889.886719 426.924805,891.368469 426.928650,895.940979 
	C427.024719,1010.581299 427.028687,1125.221680 426.918182,1239.861938 
	C426.913483,1244.725220 428.549744,1246.128052 433.264893,1246.082520 
	C453.924896,1245.883301 474.587921,1246.004883 495.249847,1245.996704 
	C502.974426,1245.993652 502.996063,1245.976807 502.997314,1238.348755 
	C503.005219,1190.692993 502.998444,1143.037354 503.007935,1095.381592 
	C503.009399,1088.032593 503.036499,1088.010376 510.528809,1088.006592 
	C533.356934,1087.994873 556.184998,1087.996704 579.013123,1088.004761 
	C586.977966,1088.007568 586.995300,1088.022705 586.996338,1095.922119 
	C587.002747,1143.411255 586.996887,1190.900391 587.004944,1238.389526 
	C587.006226,1245.977539 587.028992,1245.993164 594.794739,1245.996948 
	C614.456909,1246.006348 634.119019,1246.004639 653.781189,1245.998169 
	C661.984741,1245.995483 661.998657,1245.984985 661.999023,1237.817749 
	C662.002625,1148.838135 662.001709,1059.858521 662.001404,970.878967 
	C662.001343,946.051331 661.873413,921.222534 662.100647,896.396973 
	C662.147522,891.279907 660.453064,889.807556 655.488464,889.905273 
	C641.497131,890.180603 627.496765,889.999573 612.500000,889.998352 
M291.528229,941.819336 
	C298.701965,945.495056 303.958008,951.230835 305.891785,958.862549 
	C308.279602,968.286499 309.545135,978.015564 310.902344,987.668091 
	C311.346191,990.824524 312.411682,992.016479 315.527710,992.007385 
	C336.855530,991.945007 358.183746,991.945251 379.511566,992.003784 
	C382.665192,992.012451 384.166199,990.801941 383.977692,987.584717 
	C383.279114,975.662659 383.716034,963.549927 381.717621,951.851990 
	C376.323547,920.277649 357.821045,899.757690 326.975433,890.474243 
	C309.694550,885.273315 292.009857,884.861023 274.163910,884.906372 
	C252.297562,884.961914 231.075104,888.020874 211.114426,897.182251 
	C195.644241,904.282715 183.177170,915.127441 174.976974,930.216736 
	C163.262436,951.772705 161.298798,975.037537 163.921021,998.953613 
	C166.451370,1022.031677 177.777725,1040.702881 194.094559,1056.390625 
	C207.428146,1069.210083 223.148026,1078.939209 238.920441,1088.544067 
	C256.480896,1099.237793 274.148529,1109.845459 290.983917,1121.614380 
	C307.356354,1133.059448 315.237915,1149.012085 310.966400,1169.556519 
	C308.754761,1180.193970 303.669800,1188.784546 293.591705,1193.689209 
	C284.791656,1197.971680 275.619232,1198.435303 265.923431,1197.163940 
	C250.972839,1195.203735 240.017380,1187.028809 237.129730,1172.386841 
	C235.059982,1161.892212 234.892334,1151.013794 234.036972,1140.293823 
	C233.808563,1137.431030 233.822113,1134.993530 229.890900,1135.005615 
	C207.230255,1135.074951 184.569275,1135.053467 161.908447,1135.028564 
	C159.168259,1135.025513 158.079742,1136.290405 158.017197,1138.979980 
	C157.528381,1160.000977 157.950974,1180.900024 166.084702,1200.784668 
	C173.441360,1218.769653 185.757568,1232.154175 203.323517,1240.593750 
	C219.503357,1248.367554 236.939178,1251.066895 254.538483,1251.811401 
	C277.994507,1252.803711 301.404785,1251.487793 324.167267,1244.934326 
	C342.820343,1239.564087 359.135406,1230.333008 370.475403,1214.082275 
	C388.868134,1187.724487 390.862549,1158.022217 386.156433,1127.606201 
	C382.070923,1101.201172 367.022919,1080.793091 345.480072,1066.079346 
	C325.788574,1052.630005 304.695892,1041.219482 284.114929,1029.089966 
	C271.372009,1021.579773 258.829010,1013.987549 248.962448,1002.574219 
	C239.045776,991.102844 236.323318,971.950989 242.365280,958.040771 
	C250.382034,939.583923 274.462006,935.245728 291.528229,941.819336 
M710.999084,1225.499756 
	C711.004700,1230.666260 711.140564,1235.837036 710.971436,1240.997803 
	C710.853088,1244.606812 712.207275,1246.049072 715.903992,1246.032104 
	C737.568481,1245.932861 759.234131,1245.918213 780.898376,1246.045288 
	C784.892578,1246.068604 786.087708,1244.466187 786.040466,1240.692749 
	C785.896423,1229.195557 785.998291,1217.695190 785.999512,1206.196045 
	C786.002808,1173.531860 786.083191,1140.867310 785.918030,1108.203979 
	C785.893799,1103.411133 787.413574,1101.759521 792.211487,1101.920044 
	C801.200684,1102.220825 810.207642,1101.945068 819.206421,1102.014038 
	C836.170044,1102.144165 853.170288,1102.392578 869.872070,1098.910522 
	C901.124939,1092.395142 922.929260,1074.700928 933.103027,1043.933105 
	C939.990540,1023.103394 941.063904,1001.717651 939.211731,979.939514 
	C937.671753,961.830933 933.957703,944.523071 924.838257,928.635803 
	C917.038818,915.048096 905.673096,905.484253 891.524109,898.991272 
	C876.047546,891.889160 859.456116,890.316467 842.868164,890.143494 
	C801.375732,889.710754 759.875854,889.999634 718.378967,890.001526 
	C717.212585,890.001587 716.045044,890.069946 714.880005,890.037598 
	C712.119507,889.961060 710.966187,891.355347 711.029541,894.025513 
	C711.077026,896.023743 711.000916,898.024597 711.000854,900.024292 
	C710.998901,1008.182800 710.999084,1116.341309 710.999084,1225.499756 
M1161.999756,937.401062 
	C1161.999512,924.237183 1162.006714,911.073303 1161.996216,897.909424 
	C1161.989990,890.018555 1161.977661,890.002197 1154.007568,890.001526 
	C1095.021362,889.996582 1036.035278,889.997742 977.049133,889.999512 
	C968.007812,889.999817 968.000122,890.005920 968.000000,898.851624 
	C967.998169,1006.826233 967.998657,1114.800903 967.999390,1222.775513 
	C967.999451,1228.774048 968.157471,1234.777710 967.958984,1240.769409 
	C967.831055,1244.629150 969.262573,1246.046509 973.173706,1246.041626 
	C1035.658936,1245.964111 1098.144287,1245.959473 1160.629395,1246.051880 
	C1164.821167,1246.058105 1166.093750,1244.474243 1166.050781,1240.463745 
	C1165.897339,1226.135376 1166.006104,1211.804443 1165.994141,1197.474487 
	C1165.988037,1190.030762 1165.967651,1190.005981 1158.571411,1190.003906 
	C1122.579834,1189.993774 1086.588379,1190.002563 1050.596802,1189.993164 
	C1043.038574,1189.991089 1043.010864,1189.968506 1043.007935,1182.686401 
	C1042.996338,1153.526611 1042.995850,1124.366699 1043.008667,1095.206909 
	C1043.011841,1088.041992 1043.041992,1088.011353 1050.203247,1088.008423 
	C1082.029053,1087.994995 1113.854980,1088.006470 1145.680786,1087.994629 
	C1152.957520,1087.991943 1152.984131,1087.965576 1152.993652,1080.917847 
	C1153.012573,1066.921143 1153.013916,1052.924316 1152.992676,1038.927612 
	C1152.982178,1032.046143 1152.951904,1032.010132 1146.025879,1032.006714 
	C1113.866821,1031.990723 1081.707153,1031.910645 1049.549072,1032.085693 
	C1044.644287,1032.112549 1042.850098,1030.805420 1042.900391,1025.636719 
	C1043.137085,1001.311340 1042.992554,976.982422 1043.012817,952.654785 
	C1043.018311,946.058960 1043.064453,946.014709 1049.755493,946.011414 
	C1084.580688,945.994202 1119.405762,946.005493 1154.230957,945.997009 
	C1161.918579,945.995117 1161.918579,945.976746 1161.999756,937.401062 
M782.997375,463.658325 
	C782.010742,450.095551 780.997925,436.534576 780.044128,422.969513 
	C778.863098,406.173126 767.370850,400.396851 753.366394,409.867310 
	C724.894409,429.121368 696.550903,448.565430 668.162964,467.943512 
	C664.168274,470.670380 662.134155,474.620270 662.098389,479.338531 
	C662.067017,483.468048 662.675293,487.600067 662.943115,491.734711 
	C664.294434,512.594482 666.442444,533.442444 666.777161,554.319092 
	C667.296326,586.704285 668.552795,619.196716 662.957275,651.362732 
	C660.211975,667.143921 656.403687,682.578369 646.997437,696.000610 
	C635.938538,711.781311 618.533875,713.725403 605.530334,699.721008 
	C599.058594,692.751099 593.531494,684.631653 588.871155,676.307678 
	C578.427612,657.654297 572.293152,637.205994 566.023560,616.878906 
	C564.995972,613.547180 563.206848,610.864502 559.838989,612.421143 
	C558.011108,613.265991 556.496826,616.677246 556.414062,618.987183 
	C556.274231,622.892761 557.399841,626.840576 557.963501,630.774902 
	C561.500000,655.460999 566.193298,679.896790 575.258850,703.233582 
	C582.676453,722.328308 592.188599,740.304504 609.273376,752.602722 
	C633.925110,770.347839 660.455078,773.838623 688.185059,760.296021 
	C705.852661,751.667542 718.472900,737.321350 729.341492,721.350952 
	C746.480225,696.167175 757.496155,668.163330 764.749878,638.883118 
	C770.399170,616.079285 774.707825,592.836060 777.853638,569.550537 
	C780.778442,547.900757 781.718323,525.954895 782.873474,504.104523 
	C783.567322,490.979431 783.000061,477.787689 782.997375,463.658325 
M665.997498,205.524551 
	C668.768188,191.436203 672.161987,177.515839 681.126770,165.867676 
	C692.885010,150.590179 708.021667,146.288300 722.956543,162.716034 
	C729.141724,169.519531 734.508179,177.326843 738.971436,185.384186 
	C749.324158,204.073593 755.988037,224.314972 761.964539,244.762131 
	C762.914551,248.012527 764.902832,250.778290 768.176208,249.540375 
	C769.948975,248.869919 771.937317,245.041000 771.579834,243.038208 
	C767.620544,220.855255 764.173706,198.511108 758.682678,176.690048 
	C752.667114,152.784210 742.628723,130.421753 723.796814,113.389328 
	C705.720886,97.040604 684.322754,90.678101 660.258362,94.490524 
	C637.934326,98.027229 621.456848,111.569817 607.688904,128.228653 
	C591.226013,148.148270 580.149963,171.234924 571.654419,195.584259 
	C562.326477,222.319473 555.223816,249.625885 551.944153,277.750763 
	C549.103027,302.114868 546.308289,326.555176 545.246094,351.037842 
	C543.948914,380.935425 544.991394,410.888916 547.920593,440.736542 
	C548.520386,446.848846 550.475281,452.131439 556.030823,454.627014 
	C561.839844,457.236389 567.958191,456.908112 573.549500,452.933472 
	C581.670227,447.160797 589.916748,441.564117 598.141357,435.938812 
	C618.432800,422.060303 638.754578,408.226105 659.035339,394.332031 
	C663.726074,391.118500 666.379639,386.763275 666.003723,380.857544 
	C665.602966,374.560272 665.276367,368.258331 664.900330,361.959442 
	C663.604553,340.256927 661.711548,318.569397 661.174988,296.848297 
	C660.686462,277.068298 661.297668,257.236084 662.151367,237.458282 
	C662.600037,227.064056 664.606201,216.737091 665.997498,205.524551 
M540.553223,563.001221 
	C563.684265,562.662842 586.815491,562.331787 609.946289,561.978638 
	C613.710449,561.921143 617.018921,561.322083 616.971130,556.337769 
	C616.922607,551.284302 613.581116,551.243469 609.815857,550.944092 
	C590.642700,549.419861 571.429810,548.168274 552.336792,545.920532 
	C526.390137,542.865906 500.895660,537.375549 476.561737,527.617249 
	C460.463531,521.161560 444.903748,513.536072 433.889313,499.336090 
	C424.834564,487.662689 422.847260,472.676697 431.301514,459.936432 
	C437.360077,450.806366 445.351624,443.908203 454.493500,438.437561 
	C464.605713,432.386261 475.181000,427.088501 485.691010,421.730042 
	C491.440247,418.798828 494.399475,414.985992 494.131256,408.049561 
	C493.411346,389.432831 493.200500,370.792236 493.063751,352.159088 
	C493.005341,344.195312 493.599487,336.224945 493.959869,328.260437 
	C494.252563,321.792236 494.733643,315.331635 494.959503,308.861664 
	C495.231476,301.070496 493.164673,298.959961 485.474915,299.040131 
	C483.506836,299.060608 481.396179,299.101868 479.600342,299.787079 
	C464.402771,305.585724 448.920685,310.794678 434.180847,317.602722 
	C407.686035,329.840179 383.322723,345.624756 360.863922,364.376465 
	C343.464539,378.903931 328.195465,395.003265 318.553284,415.867493 
	C303.448364,448.552185 311.003998,484.547028 336.832092,509.116455 
	C352.263397,523.795715 371.206268,532.839783 391.097961,539.865112 
	C416.090576,548.692017 441.842163,554.400391 468.191132,557.019714 
	C491.948303,559.381409 515.775879,561.035339 540.553223,563.001221 
M999.516113,361.986542 
	C997.926941,360.074127 996.451233,358.052338 994.730408,356.266693 
	C981.450867,342.486542 965.250427,333.241821 947.718628,326.050385 
	C922.207642,315.585907 895.565918,309.693756 868.359924,305.777588 
	C839.900269,301.680969 811.332275,299.119232 782.590820,299.071930 
	C760.634888,299.035828 738.678040,299.682526 716.721008,299.977448 
	C712.779785,300.030365 710.923706,301.790771 711.029602,305.796936 
	C711.132568,309.688568 713.280579,310.806732 716.821594,311.024292 
	C731.057007,311.898926 745.364502,312.300781 759.489258,314.101929 
	C778.212219,316.489502 796.948303,319.281616 815.390076,323.243530 
	C840.516357,328.641510 864.891296,336.698212 885.225403,353.233429 
	C906.978210,370.922333 908.282959,394.574585 887.002441,413.241943 
	C874.040649,424.612000 858.972778,432.731110 843.163452,439.521637 
	C837.045105,442.149628 833.200500,446.300171 833.912903,453.766266 
	C834.637329,461.359070 835.040283,469.026733 834.903992,476.649445 
	C834.458191,501.577515 833.868958,526.505981 832.981873,551.421692 
	C832.642151,560.963501 835.320740,564.013794 844.804871,562.898621 
	C846.110291,562.744995 847.396362,562.333252 848.661377,561.943787 
	C868.870911,555.720703 888.226990,547.520691 906.933716,537.624573 
	C937.266724,521.577942 965.045349,502.169128 988.500732,476.954071 
	C1002.930542,461.441803 1013.227417,443.801575 1016.203491,422.365784 
	C1019.302368,400.045898 1013.270325,380.333618 999.516113,361.986542 
M1136.215942,1329.812988 
	C1135.024292,1333.585815 1133.832642,1337.358643 1132.641113,1341.131470 
	C1132.139404,1341.063110 1131.637695,1340.994873 1131.136108,1340.926514 
	C1128.414062,1331.552490 1125.770020,1322.154907 1122.949463,1312.810669 
	C1119.698486,1302.040771 1121.349731,1304.314453 1111.870361,1304.010254 
	C1109.706665,1303.940674 1107.524536,1304.168213 1105.375854,1303.976807 
	C1101.177734,1303.602905 1099.910889,1305.520508 1099.949463,1309.533203 
	C1100.099243,1325.193481 1100.105957,1340.857178 1099.946533,1356.517334 
	C1099.905151,1360.590698 1101.254883,1362.174438 1105.417847,1362.061401 
	C1111.633179,1361.892944 1111.968262,1361.831909 1111.986084,1355.691772 
	C1112.020142,1343.923706 1111.995972,1332.155273 1111.995972,1320.387085 
	C1113.269287,1321.241699 1113.712036,1322.223022 1114.031372,1323.242798 
	C1117.602173,1334.649658 1121.297974,1346.020630 1124.631714,1357.496582 
	C1125.778076,1361.442871 1128.156006,1362.052246 1131.680908,1362.072021 
	C1135.228394,1362.091919 1137.646606,1361.441406 1138.758789,1357.518311 
	C1141.384766,1348.256470 1144.324951,1339.082397 1147.216553,1329.897583 
	C1148.344482,1326.315186 1149.682861,1322.798828 1150.925293,1319.252441 
	C1152.028809,1332.213135 1152.132324,1344.862671 1151.977661,1357.509033 
	C1151.915894,1362.565552 1155.260254,1362.034058 1158.411255,1361.972290 
	C1161.432495,1361.913086 1165.036499,1362.873779 1165.005005,1357.697266 
	C1164.904541,1341.203247 1164.940674,1324.708130 1164.988037,1308.213745 
	C1164.996460,1305.271729 1163.773560,1303.952881 1160.809937,1304.014160 
	C1156.813232,1304.096802 1152.804199,1304.183472 1148.817383,1303.962280 
	C1145.583008,1303.782715 1143.961914,1305.169067 1143.066650,1308.150146 
	C1140.964844,1315.147705 1138.695190,1322.094849 1136.215942,1329.812988 
M515.998657,1316.475342 
	C515.868042,1328.145142 517.238586,1326.885742 505.634705,1326.995117 
	C503.803802,1327.012329 501.969604,1326.902466 500.141876,1326.975464 
	C497.139862,1327.095215 495.952667,1325.636719 496.015686,1322.736572 
	C496.091644,1319.242554 496.008301,1315.745117 496.000763,1312.249146 
	C495.982452,1303.769531 495.334656,1303.272095 486.863342,1303.993042 
	C484.126038,1304.225952 483.021851,1305.364258 483.026581,1308.024658 
	C483.056183,1324.672485 483.052368,1341.320312 483.034973,1357.968140 
	C483.029480,1363.235229 486.981232,1361.814453 489.858826,1361.951050 
	C492.832855,1362.092163 496.110565,1362.506592 496.000000,1357.752563 
	C495.872253,1352.262451 496.070312,1346.765381 496.012726,1341.272583 
	C495.982422,1338.380859 497.123291,1336.955566 500.132263,1337.018433 
	C504.292206,1337.105347 508.457977,1337.124878 512.616333,1337.004272 
	C515.857300,1336.910522 517.071716,1338.393433 517.002136,1341.520508 
	C516.898438,1346.179443 517.272217,1350.863403 516.928955,1355.498535 
	C516.560181,1360.476318 518.268066,1362.391968 523.399841,1362.087402 
	C529.751587,1361.710083 529.972046,1361.864746 529.985962,1355.719604 
	C530.019470,1340.902832 530.010010,1326.085938 529.994690,1311.269165 
	C529.987183,1303.993652 529.963867,1303.993652 522.882385,1304.003540 
	C516.058472,1304.013062 516.043945,1304.026367 516.002136,1311.005005 
	C515.993164,1312.503296 515.999512,1314.001709 515.998657,1316.475342 
M994.245361,1334.298096 
	C989.420044,1332.188721 984.643799,1329.955688 979.751526,1328.015381 
	C976.685181,1326.799194 973.113770,1326.553589 970.398499,1324.862061 
	C968.606201,1323.745483 966.444946,1320.009644 967.062561,1318.895630 
	C968.403931,1316.476318 971.233704,1313.860474 973.804504,1313.434448 
	C976.327209,1313.016479 980.176758,1314.441895 981.870850,1316.411499 
	C985.988708,1321.199097 989.562500,1322.506104 996.302063,1319.841309 
	C995.736572,1311.383057 992.120605,1306.574585 984.782288,1304.433594 
	C978.035034,1302.464966 971.368225,1302.695923 964.729431,1304.957275 
	C957.650696,1307.368652 953.522095,1312.253906 953.038452,1318.899536 
	C952.414978,1327.466064 954.460205,1331.551147 962.456726,1335.054321 
	C968.037415,1337.499023 974.082825,1338.863159 979.853027,1340.901489 
	C983.956177,1342.351074 985.718018,1346.612671 982.847961,1349.416626 
	C980.608582,1351.604492 976.855408,1353.369629 973.826599,1353.292725 
	C971.030579,1353.221558 966.396301,1350.898560 965.898132,1348.783936 
	C964.313416,1342.056885 959.780518,1343.067261 955.187866,1342.993042 
	C951.795349,1342.938354 950.610779,1344.647461 951.114502,1347.649658 
	C952.156616,1353.860718 954.766602,1358.991089 961.256531,1361.177124 
	C970.092896,1364.153076 979.010681,1364.212646 987.520447,1360.545044 
	C997.271423,1356.342407 1002.005127,1343.701660 994.245361,1334.298096 
M415.169678,1364.198120 
	C414.662048,1365.831299 413.445068,1367.630981 413.781708,1369.066162 
	C414.738525,1373.145386 417.934479,1375.283569 421.837616,1376.375244 
	C428.038177,1378.109619 434.193878,1378.078979 440.432373,1376.310913 
	C446.887604,1374.481812 450.563202,1370.043091 450.787750,1363.764038 
	C451.251892,1350.783813 451.008270,1337.775269 450.835754,1324.781128 
	C450.819580,1323.562988 449.251587,1321.348267 448.381165,1321.336914 
	C444.853333,1321.290283 441.316528,1321.924194 437.783051,1322.307007 
	C430.097931,1319.554932 422.571503,1320.156494 417.172913,1325.339355 
	C410.877014,1331.383667 409.116180,1342.764038 413.158539,1351.284790 
	C417.183990,1359.770142 422.078430,1361.428833 437.437714,1359.432373 
	C438.503479,1362.879883 438.540436,1366.490356 434.937775,1368.000122 
	C432.700714,1368.937744 428.286743,1368.942505 427.191376,1367.538818 
	C423.984283,1363.428711 420.092743,1363.969727 415.169678,1364.198120 
M1053.112183,1306.969116 
	C1053.079834,1323.625000 1053.076538,1340.281006 1052.989502,1356.936646 
	C1052.973389,1360.021606 1053.590576,1362.051636 1057.337280,1362.008667 
	C1067.829590,1361.888306 1078.324463,1361.904541 1088.817261,1361.998047 
	C1092.229004,1362.028442 1093.051636,1360.274170 1093.007080,1357.300659 
	C1092.963745,1354.414307 1092.869141,1351.903809 1088.916992,1352.010864 
	C1084.589844,1352.128174 1080.256592,1352.005005 1075.925903,1352.001709 
	C1065.394775,1351.993774 1065.526733,1352.002686 1065.954224,1341.526245 
	C1066.099609,1337.964722 1067.622681,1336.913940 1070.875977,1336.985718 
	C1075.870117,1337.096069 1080.870972,1336.887573 1085.865234,1336.994263 
	C1089.316406,1337.067993 1090.031982,1335.182739 1090.007690,1332.250854 
	C1089.983521,1329.325562 1089.786865,1326.913086 1085.869019,1327.002686 
	C1080.708984,1327.120972 1075.539551,1326.860718 1070.380737,1327.003540 
	C1065.252319,1327.145264 1066.040894,1323.551880 1066.027954,1320.479614 
	C1066.015015,1317.380249 1065.317017,1313.843750 1070.420410,1313.991211 
	C1075.912109,1314.149902 1081.415649,1313.881470 1086.908203,1314.026489 
	C1090.405518,1314.118774 1092.040527,1313.024536 1092.067017,1309.208496 
	C1092.094116,1305.319458 1090.724487,1303.882568 1086.826172,1303.955811 
	C1077.335205,1304.134033 1067.836548,1303.911743 1058.346191,1304.105591 
	C1056.638428,1304.140381 1054.955566,1305.391479 1053.112183,1306.969116 
M294.147186,1333.001099 
	C293.826263,1338.269409 292.751984,1343.628418 293.372498,1348.783447 
	C294.173370,1355.436646 298.070038,1360.149414 305.021729,1362.209351 
	C310.842102,1363.933838 315.766571,1362.251709 320.601654,1359.632568 
	C321.017487,1359.836426 321.294525,1360.063965 321.597656,1360.106934 
	C325.179352,1360.613159 328.786407,1361.461426 332.330750,1361.255493 
	C333.011169,1361.216064 333.904846,1357.010498 333.925842,1354.719727 
	C334.064697,1339.582031 333.810211,1324.438965 334.085815,1309.305054 
	C334.183533,1303.939453 331.220490,1303.990234 327.424225,1303.945435 
	C323.470337,1303.898682 320.512573,1304.247070 320.936646,1309.465454 
	C321.291046,1313.826782 321.009399,1318.239746 321.009399,1322.794678 
	C304.665131,1319.637695 299.749725,1321.489258 294.147186,1333.001099 
M621.948364,1362.106689 
	C628.662659,1362.844849 634.065674,1360.714478 637.540649,1354.719238 
	C641.502563,1347.883667 642.158386,1340.499023 640.043640,1333.045410 
	C637.540588,1324.223267 632.759521,1320.778076 623.595581,1321.100464 
	C620.057800,1321.224854 616.557800,1322.424805 612.637817,1323.216064 
	C610.301819,1319.435303 606.049377,1321.031738 602.323792,1321.420410 
	C601.421509,1321.514526 600.137878,1324.133789 600.123108,1325.603027 
	C599.965210,1341.264282 600.107666,1356.928223 599.984009,1372.590088 
	C599.943726,1377.700806 603.393433,1376.982788 606.486572,1376.973633 
	C609.560730,1376.964600 613.190430,1377.747559 613.000427,1372.616821 
	C612.850647,1368.571899 612.970398,1364.517090 612.970398,1360.458252 
	C616.355591,1361.113159 618.764038,1361.579224 621.948364,1362.106689 
M655.374512,1333.994629 
	C658.108582,1334.063110 660.442139,1333.991821 661.670776,1330.579956 
	C662.083130,1329.434937 665.327271,1328.453857 666.906738,1328.855225 
	C668.177185,1329.177856 668.889404,1331.697876 669.849243,1333.242798 
	C668.372986,1334.155518 667.000854,1335.505371 665.398254,1335.886963 
	C662.359192,1336.610352 659.098022,1336.442993 656.091125,1337.249634 
	C650.396851,1338.777222 645.484009,1346.381348 646.224854,1351.920410 
	C647.111389,1358.548462 652.284424,1363.221924 659.381775,1362.854492 
	C663.343567,1362.649536 667.235596,1361.096436 671.539368,1360.059204 
	C674.297729,1363.538330 678.482910,1361.889038 683.449707,1361.350830 
	C682.897217,1350.452881 682.488892,1339.861572 681.696594,1329.299194 
	C681.566528,1327.565186 680.047852,1325.634521 678.658752,1324.347534 
	C672.634705,1318.765991 658.131958,1318.276611 652.116394,1323.861084 
	C650.063904,1325.766357 649.554810,1329.334351 648.340515,1332.142578 
	C650.394287,1332.760620 652.447998,1333.378662 655.374512,1333.994629 
M694.921631,1361.884644 
	C706.839233,1362.281006 704.802429,1362.037476 704.988098,1352.182739 
	C705.088501,1346.851196 704.870972,1341.507812 705.144653,1336.187622 
	C705.344482,1332.302368 707.762695,1330.073364 711.702026,1330.156128 
	C715.617920,1330.238159 717.113159,1332.544312 717.030029,1336.411987 
	C716.879517,1343.408325 717.164001,1350.415039 716.974609,1357.409424 
	C716.826538,1362.875610 720.597229,1361.876343 723.809021,1361.991943 
	C727.149170,1362.112183 730.171875,1362.176270 730.039001,1357.286133 
	C729.812683,1348.959106 730.086792,1340.619263 729.930420,1332.289062 
	C729.824219,1326.629028 726.895081,1323.048584 721.675110,1321.043213 
	C715.596985,1318.707886 710.330566,1320.874268 705.074463,1323.897461 
	C702.278992,1319.445190 697.885559,1320.659424 694.373657,1321.565186 
	C693.063110,1321.902954 692.175903,1326.137817 692.104919,1328.624634 
	C691.843262,1337.783691 691.892456,1346.957397 692.099182,1356.119385 
	C692.141724,1358.004150 693.366211,1359.862305 694.921631,1361.884644 
M207.430176,1333.214600 
	C207.177490,1334.348755 206.937531,1335.485840 206.670181,1336.616455 
	C202.361832,1354.837769 215.220688,1367.578979 233.165497,1362.632202 
	C237.929688,1361.318848 241.856430,1358.361450 243.271774,1353.213013 
	C243.569183,1352.131104 242.938889,1349.751831 242.855698,1349.757324 
	C239.114838,1350.007812 234.724289,1349.393799 231.846069,1351.186646 
	C229.005508,1352.956055 227.052231,1355.712891 223.341522,1354.020996 
	C219.768082,1352.391846 218.283386,1349.571045 219.179169,1344.982910 
	C226.228729,1344.982910 233.185699,1344.859985 240.135330,1345.032471 
	C243.856293,1345.124878 245.018738,1343.571411 245.042297,1339.989258 
	C245.107269,1330.109497 239.322189,1322.252319 230.162750,1320.265991 
	C220.697891,1318.213623 211.515778,1323.227417 207.430176,1333.214600 
M276.627960,1361.771362 
	C279.117340,1361.813354 281.633118,1362.075806 284.082214,1361.782104 
	C284.985504,1361.673950 286.442352,1360.252441 286.439911,1359.433594 
	C286.414154,1350.804443 286.259155,1342.171265 285.898071,1333.549316 
	C285.683380,1328.423462 283.605713,1323.878052 278.518738,1322.211060 
	C274.356293,1320.847046 269.747589,1320.026733 265.402710,1320.250000 
	C260.256500,1320.514404 255.225876,1322.266968 252.786362,1327.683838 
	C250.984955,1331.683960 252.182556,1333.728271 256.371643,1333.974976 
	C260.071198,1334.192749 263.549255,1334.395142 265.489746,1329.968140 
	C265.939117,1328.942749 269.444153,1328.123169 270.575470,1328.807739 
	C272.101379,1329.731323 272.690582,1332.202515 273.681763,1334.009644 
	C272.169678,1334.668701 270.712067,1335.538574 269.135040,1335.946411 
	C264.867981,1337.049683 260.292847,1337.364136 256.317139,1339.090454 
	C251.258530,1341.287231 248.988266,1347.701782 250.160492,1353.598999 
	C251.199219,1358.824829 255.137222,1362.689697 261.061981,1362.752808 
	C265.445801,1362.799683 269.845673,1361.348022 275.086304,1360.412476 
	C274.779205,1360.013672 275.362579,1360.771362 276.627960,1361.771362 
M890.446167,1361.988892 
	C894.960205,1362.592773 896.097412,1360.348877 896.081360,1356.173828 
	C896.055847,1349.559082 896.548584,1342.938232 896.943298,1336.327271 
	C897.190247,1332.192261 899.380737,1329.820068 903.688904,1330.118774 
	C908.358704,1330.442749 909.029175,1333.763550 909.004639,1337.589722 
	C908.962036,1344.242554 909.154053,1350.899536 908.984131,1357.548096 
	C908.854553,1362.620483 912.307800,1362.018066 915.429749,1361.971313 
	C918.455688,1361.925903 922.084900,1362.846191 922.001587,1357.689209 
	C921.867310,1349.375000 922.238037,1341.044800 921.874939,1332.744141 
	C921.481873,1323.759033 913.974060,1318.375488 905.212830,1320.481201 
	C902.373047,1321.163818 899.669617,1322.413940 896.828064,1323.431641 
	C894.135681,1319.381958 889.789246,1320.791992 886.233643,1321.570679 
	C885.059509,1321.827759 884.160461,1325.889648 884.100281,1328.236694 
	C883.861816,1337.545166 884.154663,1346.866821 883.939514,1356.176514 
	C883.842712,1360.363647 885.047180,1362.591919 890.446167,1361.988892 
M378.894562,1323.503540 
	C378.244049,1323.210449 377.618652,1322.759033 376.938721,1322.651245 
	C373.671417,1322.133545 370.350372,1321.263184 367.138336,1321.544556 
	C366.265900,1321.620728 365.145630,1325.260376 365.099518,1327.286499 
	C364.883850,1336.765503 364.975677,1346.252075 365.013947,1355.735840 
	C365.038696,1361.862793 365.253693,1361.710449 371.609833,1362.088135 
	C376.744354,1362.393188 378.370483,1360.468506 378.081635,1355.500244 
	C377.734650,1349.531250 377.704498,1343.500366 378.185303,1337.548706 
	C378.370483,1335.256348 379.779663,1332.269653 381.601410,1331.057373 
	C386.282227,1327.942505 390.565979,1330.998901 390.881775,1337.625000 
	C391.190399,1344.100098 391.192932,1350.606934 390.951385,1357.085693 
	C390.776703,1361.770996 393.426910,1362.063477 396.971771,1362.042358 
	C400.453583,1362.021484 403.181610,1361.882080 403.048096,1357.143311 
	C402.809235,1348.664429 403.228180,1340.162476 402.827393,1331.695923 
	C402.707123,1329.155273 401.312164,1326.217651 399.576385,1324.298096 
	C394.691437,1318.895752 388.909607,1318.789062 378.894562,1323.503540 
M1033.868286,1315.049561 
	C1037.032837,1315.012573 1040.197754,1314.932129 1043.361938,1314.949585 
	C1047.145874,1314.970581 1047.016846,1312.303467 1046.965454,1309.750488 
	C1046.913330,1307.164917 1047.555176,1304.059448 1043.360352,1304.061890 
	C1030.034546,1304.069580 1016.708008,1304.018555 1003.384216,1304.185913 
	C1002.306152,1304.199463 1000.622070,1305.502319 1000.282715,1306.550415 
	C998.406006,1312.344971 1000.385986,1314.932373 1006.392334,1314.995361 
	C1007.891479,1315.011108 1009.410217,1315.160400 1010.886597,1314.978394 
	C1015.791443,1314.373413 1017.181641,1316.613159 1017.079285,1321.297363 
	C1016.824524,1332.952637 1017.203613,1344.622437 1016.911133,1356.275879 
	C1016.788391,1361.164917 1018.906555,1362.184814 1023.173950,1362.074707 
	C1027.173462,1361.971436 1030.265259,1362.074341 1030.100342,1356.431519 
	C1029.750122,1344.447876 1029.883423,1332.443848 1030.144165,1320.455322 
	C1030.183228,1318.655884 1031.980469,1316.894531 1033.868286,1315.049561 
M587.263550,1332.995117 
	C588.710571,1332.864014 590.157654,1332.732788 591.538391,1332.607666 
	C591.937134,1327.078979 589.931946,1323.164307 584.975708,1322.079224 
	C580.279785,1321.051147 575.196899,1320.693970 570.441162,1321.291504 
	C563.201599,1322.201294 559.250305,1326.853638 559.045837,1333.030884 
	C558.852112,1338.883911 562.465820,1342.948120 569.631409,1344.932983 
	C572.666443,1345.773560 575.785828,1346.399902 578.697327,1347.552002 
	C579.877808,1348.019043 581.304871,1349.607056 581.338745,1350.723999 
	C581.371033,1351.787842 579.944153,1353.269897 578.792969,1353.926392 
	C575.134888,1356.011963 572.609253,1354.297607 570.471741,1351.144287 
	C568.991455,1348.960693 559.442017,1347.986816 559.272278,1349.763672 
	C558.995911,1352.657593 560.407593,1355.789185 561.468384,1358.687988 
	C561.787231,1359.559570 563.263062,1360.074829 564.283325,1360.611572 
	C570.025024,1363.632446 576.151611,1363.812622 582.224121,1362.278687 
	C590.215393,1360.260132 594.025146,1355.617920 593.973022,1348.867188 
	C593.925781,1342.748291 590.196594,1339.082031 582.015076,1336.991455 
	C579.126953,1336.253540 576.199097,1335.552612 573.456848,1334.426758 
	C572.490112,1334.029785 571.427063,1332.368164 571.506531,1331.371704 
	C571.576843,1330.489990 573.193298,1329.033325 574.091125,1329.059692 
	C576.036682,1329.116699 577.988403,1329.872437 579.883545,1330.504517 
	C582.103027,1331.244629 584.265137,1332.156982 587.263550,1332.995117 
M200.759354,1351.586670 
	C195.127655,1351.388306 189.484848,1350.882935 183.867722,1351.086304 
	C179.184601,1351.255981 177.850754,1349.412964 177.931915,1344.968628 
	C178.147583,1333.158691 177.777283,1321.336060 178.091888,1309.530640 
	C178.228836,1304.392456 175.673477,1303.853882 171.644012,1303.946533 
	C167.914078,1304.032349 164.827332,1303.808838 164.919403,1309.239624 
	C165.187347,1325.042603 165.115753,1340.854004 164.945297,1356.659668 
	C164.899826,1360.875488 166.570389,1362.142212 170.554184,1362.049561 
	C178.869354,1361.856201 187.192352,1362.019653 195.511948,1361.988525 
	C201.861389,1361.964844 202.277954,1361.505615 201.939011,1355.115112 
	C201.887161,1354.137329 201.578018,1353.173096 200.759354,1351.586670 
M832.825745,1344.903442 
	C830.151489,1342.632446 827.750977,1339.850342 824.727539,1338.231445 
	C821.576477,1336.544312 817.698853,1336.260498 814.397461,1334.784790 
	C813.072754,1334.192749 812.437134,1332.059082 811.487854,1330.627197 
	C813.344849,1329.970093 815.175659,1328.946167 817.069885,1328.810791 
	C818.016357,1328.743042 818.966431,1330.749268 820.110291,1331.034912 
	C823.321594,1331.836792 826.622681,1332.361938 829.918701,1332.661621 
	C830.476196,1332.712402 831.913208,1330.712036 831.705139,1330.324219 
	C830.357483,1327.813477 829.173157,1324.740234 826.983398,1323.254395 
	C822.318665,1320.089233 816.913208,1319.820557 811.264343,1320.895630 
	C804.367493,1322.208252 799.422363,1326.323364 799.036621,1332.000854 
	C798.530457,1339.450439 801.298645,1342.727783 809.749146,1344.992432 
	C812.780090,1345.804810 815.789856,1346.786743 818.673096,1348.011719 
	C819.705566,1348.450439 821.096375,1349.948242 820.973511,1350.757690 
	C820.789551,1351.970337 819.639648,1353.418335 818.503601,1354.034790 
	C814.793579,1356.048096 812.282227,1353.973511 810.098511,1351.099487 
	C808.579956,1349.100830 799.925781,1347.838623 799.411316,1349.692261 
	C798.744812,1352.093506 799.810974,1355.113403 800.614990,1357.717651 
	C800.935974,1358.757202 802.472229,1359.522217 803.584351,1360.200562 
	C810.753296,1364.573486 818.299500,1363.877686 825.591248,1360.993774 
	C832.181152,1358.387329 834.807922,1352.225830 832.825745,1344.903442 
M773.201172,1321.178955 
	C764.076599,1323.283569 760.177185,1329.779541 759.206055,1338.382935 
	C758.101807,1348.166260 761.373596,1360.399658 773.628357,1362.727905 
	C783.871277,1364.673950 792.894897,1360.112915 794.496338,1351.610107 
	C794.741211,1350.309814 794.162048,1348.059448 793.209290,1347.471802 
	C789.803650,1345.370605 783.529846,1347.585449 781.378174,1350.932861 
	C780.592712,1352.154785 778.973877,1353.632324 777.785767,1353.589478 
	C776.505371,1353.543335 774.710144,1352.111084 774.135193,1350.834839 
	C771.428955,1344.827881 771.423462,1338.595703 773.957458,1332.531250 
	C774.511169,1331.206055 776.274597,1329.446533 777.371887,1329.519897 
	C778.827209,1329.617065 780.295532,1331.192139 781.531738,1332.369995 
	C782.526306,1333.317749 783.179077,1335.590332 783.992371,1335.594604 
	C787.487366,1335.613159 790.985718,1335.011108 794.482849,1334.635132 
	C793.249878,1331.526978 792.789368,1327.592163 790.580627,1325.528076 
	C788.044067,1323.157593 784.042053,1322.163086 780.514160,1321.120850 
	C778.531860,1320.535156 776.221619,1321.059448 773.201172,1321.178955 
M356.000488,1334.514893 
	C355.994965,1331.684082 355.790924,1328.836670 356.027222,1326.026245 
	C356.456207,1320.924561 353.212738,1320.895142 349.631989,1320.985718 
	C346.286499,1321.070312 342.842529,1320.426880 342.954803,1325.759033 
	C343.175568,1336.244873 343.177246,1346.742065 342.953613,1357.227661 
	C342.840088,1362.550171 346.262695,1361.937622 349.619202,1362.014038 
	C353.187653,1362.095093 356.259399,1362.102417 356.056610,1356.986938 
	C355.773285,1349.838257 355.994934,1342.669434 356.000488,1334.514893 
M550.774170,1361.399536 
	C551.133728,1360.681274 551.801331,1359.965454 551.806824,1359.244629 
	C551.894836,1347.636841 552.137329,1336.021973 551.815979,1324.423218 
	C551.665833,1319.006348 546.910339,1321.495239 544.061829,1321.072388 
	C541.050415,1320.625244 538.943359,1321.544312 538.992554,1325.294556 
	C539.108032,1334.083862 539.003601,1342.875732 539.000000,1351.666626 
	C538.995483,1362.616699 539.000610,1362.616699 550.774170,1361.399536 
M751.996094,1355.318604 
	C751.990845,1345.488403 751.826416,1335.654541 752.048706,1325.829590 
	C752.156738,1321.052490 749.386719,1321.000122 745.933899,1320.956177 
	C742.341553,1320.910522 739.835938,1321.308594 739.943787,1325.960449 
	C740.175537,1335.951782 740.109863,1345.953979 739.955078,1355.948486 
	C739.894531,1359.862549 740.550781,1362.237793 745.343323,1362.103760 
	C749.565491,1361.985596 752.749390,1361.625244 751.996094,1355.318604 
M872.813354,1321.628174 
	C870.521240,1321.433228 868.231750,1321.193970 865.936279,1321.055176 
	C863.235229,1320.891968 862.020691,1322.228027 862.029968,1324.929077 
	C862.068054,1336.041382 862.071167,1347.153809 862.045837,1358.266235 
	C862.036438,1362.390137 864.999695,1362.067627 867.622253,1361.943848 
	C870.189575,1361.822998 873.904114,1363.075195 873.884949,1358.515137 
	C873.834045,1346.431641 873.590393,1334.349121 872.813354,1321.628174 
M1186.671143,1361.577881 
	C1187.273071,1361.297974 1187.893433,1361.051514 1188.473999,1360.732666 
	C1192.736328,1358.393188 1194.798462,1353.967651 1193.631348,1349.497925 
	C1192.401611,1344.788330 1189.503052,1342.129150 1184.438232,1342.003540 
	C1178.219604,1341.849121 1175.619629,1343.483887 1173.928833,1348.882446 
	C1171.610840,1356.283813 1177.093018,1362.197021 1186.671143,1361.577881 
M861.050293,1311.258789 
	C862.230347,1312.484009 863.213684,1314.333984 864.638245,1314.782471 
	C866.591309,1315.397461 868.930115,1315.231079 871.005432,1314.855835 
	C872.359131,1314.611084 874.552795,1313.466187 874.607300,1312.611816 
	C874.776489,1309.961792 874.778076,1305.345581 873.628113,1304.939575 
	C870.399780,1303.800171 866.480408,1303.942749 863.016113,1304.577026 
	C862.030762,1304.757202 861.670166,1308.350342 861.050293,1311.258789 
M739.015686,1309.503906 
	C738.560974,1313.465576 740.127808,1315.433472 744.299683,1315.009277 
	C745.770020,1314.859741 747.272156,1314.887817 748.750732,1314.980591 
	C752.971497,1315.245117 752.981934,1312.444824 753.013428,1309.442017 
	C753.045959,1306.339111 752.765381,1303.724976 748.637817,1304.010498 
	C746.996155,1304.124023 745.333740,1304.110229 743.690979,1304.001465 
	C740.338745,1303.779419 738.720032,1305.204102 739.015686,1309.503906 
M347.700531,1304.019165 
	C346.268188,1304.571167 343.722137,1304.950073 343.604523,1305.706421 
	C343.190094,1308.372192 342.712585,1312.968262 343.890106,1313.554077 
	C346.700043,1314.952271 350.506378,1314.948486 353.763641,1314.483521 
	C354.749054,1314.342896 355.664490,1310.883545 355.901978,1308.860840 
	C356.616638,1302.774170 351.986725,1304.224365 347.700531,1304.019165 
M542.818298,1314.950195 
	C545.962952,1314.042358 550.974304,1317.586548 551.895752,1311.405640 
	C552.876160,1304.829224 551.654846,1303.635620 544.181030,1304.126099 
	C542.457764,1304.239380 539.493042,1305.659790 539.409302,1306.670288 
	C539.174561,1309.500366 537.049438,1313.476318 542.818298,1314.950195 
z"/>
<path fill="#1A2857" opacity="1.000000" stroke="none" 
	d="
M613.000000,889.998352 
	C627.496765,889.999573 641.497131,890.180603 655.488464,889.905273 
	C660.453064,889.807556 662.147522,891.279907 662.100647,896.396973 
	C661.873413,921.222534 662.001343,946.051331 662.001404,970.878967 
	C662.001709,1059.858521 662.002625,1148.838135 661.999023,1237.817749 
	C661.998657,1245.984985 661.984741,1245.995483 653.781189,1245.998169 
	C634.119019,1246.004639 614.456909,1246.006348 594.794739,1245.996948 
	C587.028992,1245.993164 587.006226,1245.977539 587.004944,1238.389526 
	C586.996887,1190.900391 587.002747,1143.411255 586.996338,1095.922119 
	C586.995300,1088.022705 586.977966,1088.007568 579.013123,1088.004761 
	C556.184998,1087.996704 533.356934,1087.994873 510.528809,1088.006592 
	C503.036499,1088.010376 503.009399,1088.032593 503.007935,1095.381592 
	C502.998444,1143.037354 503.005219,1190.692993 502.997314,1238.348755 
	C502.996063,1245.976807 502.974426,1245.993652 495.249847,1245.996704 
	C474.587921,1246.004883 453.924896,1245.883301 433.264893,1246.082520 
	C428.549744,1246.128052 426.913483,1244.725220 426.918182,1239.861938 
	C427.028687,1125.221680 427.024719,1010.581299 426.928650,895.940979 
	C426.924805,891.368469 428.419556,889.886719 432.964752,889.924927 
	C454.291687,890.104126 475.622253,890.131775 496.948395,889.909546 
	C501.921509,889.857727 503.089783,891.749939 503.075653,896.355408 
	C502.944916,939.011841 502.997345,981.668945 503.006500,1024.325806 
	C503.008148,1031.971924 503.029053,1031.990601 510.736420,1031.993774 
	C533.731140,1032.003296 556.725891,1032.005249 579.720581,1031.991333 
	C586.956848,1031.986938 586.990417,1031.959839 586.992493,1024.869629 
	C587.004761,982.379395 586.995911,939.889099 587.006104,897.398865 
	C587.007874,890.029175 587.034180,890.020203 594.504211,890.002258 
	C600.502808,889.987915 606.501404,889.998718 613.000000,889.998352 
z"/>
<path fill="#1A2857" opacity="1.000000" stroke="none" 
	d="
M291.195251,941.626099 
	C274.462006,935.245728 250.382034,939.583923 242.365280,958.040771 
	C236.323318,971.950989 239.045776,991.102844 248.962448,1002.574219 
	C258.829010,1013.987549 271.372009,1021.579773 284.114929,1029.089966 
	C304.695892,1041.219482 325.788574,1052.630005 345.480072,1066.079346 
	C367.022919,1080.793091 382.070923,1101.201172 386.156433,1127.606201 
	C390.862549,1158.022217 388.868134,1187.724487 370.475403,1214.082275 
	C359.135406,1230.333008 342.820343,1239.564087 324.167267,1244.934326 
	C301.404785,1251.487793 277.994507,1252.803711 254.538483,1251.811401 
	C236.939178,1251.066895 219.503357,1248.367554 203.323517,1240.593750 
	C185.757568,1232.154175 173.441360,1218.769653 166.084702,1200.784668 
	C157.950974,1180.900024 157.528381,1160.000977 158.017197,1138.979980 
	C158.079742,1136.290405 159.168259,1135.025513 161.908447,1135.028564 
	C184.569275,1135.053467 207.230255,1135.074951 229.890900,1135.005615 
	C233.822113,1134.993530 233.808563,1137.431030 234.036972,1140.293823 
	C234.892334,1151.013794 235.059982,1161.892212 237.129730,1172.386841 
	C240.017380,1187.028809 250.972839,1195.203735 265.923431,1197.163940 
	C275.619232,1198.435303 284.791656,1197.971680 293.591705,1193.689209 
	C303.669800,1188.784546 308.754761,1180.193970 310.966400,1169.556519 
	C315.237915,1149.012085 307.356354,1133.059448 290.983917,1121.614380 
	C274.148529,1109.845459 256.480896,1099.237793 238.920441,1088.544067 
	C223.148026,1078.939209 207.428146,1069.210083 194.094559,1056.390625 
	C177.777725,1040.702881 166.451370,1022.031677 163.921021,998.953613 
	C161.298798,975.037537 163.262436,951.772705 174.976974,930.216736 
	C183.177170,915.127441 195.644241,904.282715 211.114426,897.182251 
	C231.075104,888.020874 252.297562,884.961914 274.163910,884.906372 
	C292.009857,884.861023 309.694550,885.273315 326.975433,890.474243 
	C357.821045,899.757690 376.323547,920.277649 381.717621,951.851990 
	C383.716034,963.549927 383.279114,975.662659 383.977692,987.584717 
	C384.166199,990.801941 382.665192,992.012451 379.511566,992.003784 
	C358.183746,991.945251 336.855530,991.945007 315.527710,992.007385 
	C312.411682,992.016479 311.346191,990.824524 310.902344,987.668091 
	C309.545135,978.015564 308.279602,968.286499 305.891785,958.862549 
	C303.958008,951.230835 298.701965,945.495056 291.195251,941.626099 
z"/>
<path fill="#1A2857" opacity="1.000000" stroke="none" 
	d="
M710.999084,1224.999756 
	C710.999084,1116.341309 710.998901,1008.182800 711.000854,900.024292 
	C711.000916,898.024597 711.077026,896.023743 711.029541,894.025513 
	C710.966187,891.355347 712.119507,889.961060 714.880005,890.037598 
	C716.045044,890.069946 717.212585,890.001587 718.378967,890.001526 
	C759.875854,889.999634 801.375732,889.710754 842.868164,890.143494 
	C859.456116,890.316467 876.047546,891.889160 891.524109,898.991272 
	C905.673096,905.484253 917.038818,915.048096 924.838257,928.635803 
	C933.957703,944.523071 937.671753,961.830933 939.211731,979.939514 
	C941.063904,1001.717651 939.990540,1023.103394 933.103027,1043.933105 
	C922.929260,1074.700928 901.124939,1092.395142 869.872070,1098.910522 
	C853.170288,1102.392578 836.170044,1102.144165 819.206421,1102.014038 
	C810.207642,1101.945068 801.200684,1102.220825 792.211487,1101.920044 
	C787.413574,1101.759521 785.893799,1103.411133 785.918030,1108.203979 
	C786.083191,1140.867310 786.002808,1173.531860 785.999512,1206.196045 
	C785.998291,1217.695190 785.896423,1229.195557 786.040466,1240.692749 
	C786.087708,1244.466187 784.892578,1246.068604 780.898376,1246.045288 
	C759.234131,1245.918213 737.568481,1245.932861 715.903992,1246.032104 
	C712.207275,1246.049072 710.853088,1244.606812 710.971436,1240.997803 
	C711.140564,1235.837036 711.004700,1230.666260 710.999084,1224.999756 
M818.491699,1045.999512 
	C842.618286,1048.253296 853.769775,1034.833130 860.335876,1018.159302 
	C865.799194,1004.286011 864.561218,990.083496 861.430603,975.998535 
	C857.705566,959.239563 847.668518,948.105469 830.180237,946.506958 
	C816.636658,945.268921 802.899048,946.137817 789.247620,946.106934 
	C786.121155,946.099854 786.029236,948.408325 786.028564,950.663147 
	C786.019653,980.810242 786.057739,1010.957520 785.970520,1041.104370 
	C785.959778,1044.807129 787.418640,1046.086060 791.012329,1046.029175 
	C799.837646,1045.889771 808.666809,1045.993530 818.491699,1045.999512 
z"/>
<path fill="#1A2857" opacity="1.000000" stroke="none" 
	d="
M1161.999268,937.882324 
	C1161.918579,945.976746 1161.918579,945.995117 1154.230957,945.997009 
	C1119.405762,946.005493 1084.580688,945.994202 1049.755493,946.011414 
	C1043.064453,946.014709 1043.018311,946.058960 1043.012817,952.654785 
	C1042.992554,976.982422 1043.137085,1001.311340 1042.900391,1025.636719 
	C1042.850098,1030.805420 1044.644287,1032.112549 1049.549072,1032.085693 
	C1081.707153,1031.910645 1113.866821,1031.990723 1146.025879,1032.006714 
	C1152.951904,1032.010132 1152.982178,1032.046143 1152.992676,1038.927612 
	C1153.013916,1052.924316 1153.012573,1066.921143 1152.993652,1080.917847 
	C1152.984131,1087.965576 1152.957520,1087.991943 1145.680786,1087.994629 
	C1113.854980,1088.006470 1082.029053,1087.994995 1050.203247,1088.008423 
	C1043.041992,1088.011353 1043.011841,1088.041992 1043.008667,1095.206909 
	C1042.995850,1124.366699 1042.996338,1153.526611 1043.007935,1182.686401 
	C1043.010864,1189.968506 1043.038574,1189.991089 1050.596802,1189.993164 
	C1086.588379,1190.002563 1122.579834,1189.993774 1158.571411,1190.003906 
	C1165.967651,1190.005981 1165.988037,1190.030762 1165.994141,1197.474487 
	C1166.006104,1211.804443 1165.897339,1226.135376 1166.050781,1240.463745 
	C1166.093750,1244.474243 1164.821167,1246.058105 1160.629395,1246.051880 
	C1098.144287,1245.959473 1035.658936,1245.964111 973.173706,1246.041626 
	C969.262573,1246.046509 967.831055,1244.629150 967.958984,1240.769409 
	C968.157471,1234.777710 967.999451,1228.774048 967.999390,1222.775513 
	C967.998657,1114.800903 967.998169,1006.826233 968.000000,898.851624 
	C968.000122,890.005920 968.007812,889.999817 977.049133,889.999512 
	C1036.035278,889.997742 1095.021362,889.996582 1154.007568,890.001526 
	C1161.977661,890.002197 1161.989990,890.018555 1161.996216,897.909424 
	C1162.006714,911.073303 1161.999512,924.237183 1161.999268,937.882324 
z"/>
<path fill="#1A2857" opacity="1.000000" stroke="none" 
	d="
M782.998413,464.142090 
	C783.000061,477.787689 783.567322,490.979431 782.873474,504.104523 
	C781.718323,525.954895 780.778442,547.900757 777.853638,569.550537 
	C774.707825,592.836060 770.399170,616.079285 764.749878,638.883118 
	C757.496155,668.163330 746.480225,696.167175 729.341492,721.350952 
	C718.472900,737.321350 705.852661,751.667542 688.185059,760.296021 
	C660.455078,773.838623 633.925110,770.347839 609.273376,752.602722 
	C592.188599,740.304504 582.676453,722.328308 575.258850,703.233582 
	C566.193298,679.896790 561.500000,655.460999 557.963501,630.774902 
	C557.399841,626.840576 556.274231,622.892761 556.414062,618.987183 
	C556.496826,616.677246 558.011108,613.265991 559.838989,612.421143 
	C563.206848,610.864502 564.995972,613.547180 566.023560,616.878906 
	C572.293152,637.205994 578.427612,657.654297 588.871155,676.307678 
	C593.531494,684.631653 599.058594,692.751099 605.530334,699.721008 
	C618.533875,713.725403 635.938538,711.781311 646.997437,696.000610 
	C656.403687,682.578369 660.211975,667.143921 662.957275,651.362732 
	C668.552795,619.196716 667.296326,586.704285 666.777161,554.319092 
	C666.442444,533.442444 664.294434,512.594482 662.943115,491.734711 
	C662.675293,487.600067 662.067017,483.468048 662.098389,479.338531 
	C662.134155,474.620270 664.168274,470.670380 668.162964,467.943512 
	C696.550903,448.565430 724.894409,429.121368 753.366394,409.867310 
	C767.370850,400.396851 778.863098,406.173126 780.044128,422.969513 
	C780.997925,436.534576 782.010742,450.095551 782.998413,464.142090 
z"/>
<path fill="#1A2857" opacity="1.000000" stroke="none" 
	d="
M665.953247,205.952148 
	C664.606201,216.737091 662.600037,227.064056 662.151367,237.458282 
	C661.297668,257.236084 660.686462,277.068298 661.174988,296.848297 
	C661.711548,318.569397 663.604553,340.256927 664.900330,361.959442 
	C665.276367,368.258331 665.602966,374.560272 666.003723,380.857544 
	C666.379639,386.763275 663.726074,391.118500 659.035339,394.332031 
	C638.754578,408.226105 618.432800,422.060303 598.141357,435.938812 
	C589.916748,441.564117 581.670227,447.160797 573.549500,452.933472 
	C567.958191,456.908112 561.839844,457.236389 556.030823,454.627014 
	C550.475281,452.131439 548.520386,446.848846 547.920593,440.736542 
	C544.991394,410.888916 543.948914,380.935425 545.246094,351.037842 
	C546.308289,326.555176 549.103027,302.114868 551.944153,277.750763 
	C555.223816,249.625885 562.326477,222.319473 571.654419,195.584259 
	C580.149963,171.234924 591.226013,148.148270 607.688904,128.228653 
	C621.456848,111.569817 637.934326,98.027229 660.258362,94.490524 
	C684.322754,90.678101 705.720886,97.040604 723.796814,113.389328 
	C742.628723,130.421753 752.667114,152.784210 758.682678,176.690048 
	C764.173706,198.511108 767.620544,220.855255 771.579834,243.038208 
	C771.937317,245.041000 769.948975,248.869919 768.176208,249.540375 
	C764.902832,250.778290 762.914551,248.012527 761.964539,244.762131 
	C755.988037,224.314972 749.324158,204.073593 738.971436,185.384186 
	C734.508179,177.326843 729.141724,169.519531 722.956543,162.716034 
	C708.021667,146.288300 692.885010,150.590179 681.126770,165.867676 
	C672.161987,177.515839 668.768188,191.436203 665.953247,205.952148 
z"/>
<path fill="#1A2857" opacity="1.000000" stroke="none" 
	d="
M540.062805,563.001282 
	C515.775879,561.035339 491.948303,559.381409 468.191132,557.019714 
	C441.842163,554.400391 416.090576,548.692017 391.097961,539.865112 
	C371.206268,532.839783 352.263397,523.795715 336.832092,509.116455 
	C311.003998,484.547028 303.448364,448.552185 318.553284,415.867493 
	C328.195465,395.003265 343.464539,378.903931 360.863922,364.376465 
	C383.322723,345.624756 407.686035,329.840179 434.180847,317.602722 
	C448.920685,310.794678 464.402771,305.585724 479.600342,299.787079 
	C481.396179,299.101868 483.506836,299.060608 485.474915,299.040131 
	C493.164673,298.959961 495.231476,301.070496 494.959503,308.861664 
	C494.733643,315.331635 494.252563,321.792236 493.959869,328.260437 
	C493.599487,336.224945 493.005341,344.195312 493.063751,352.159088 
	C493.200500,370.792236 493.411346,389.432831 494.131256,408.049561 
	C494.399475,414.985992 491.440247,418.798828 485.691010,421.730042 
	C475.181000,427.088501 464.605713,432.386261 454.493500,438.437561 
	C445.351624,443.908203 437.360077,450.806366 431.301514,459.936432 
	C422.847260,472.676697 424.834564,487.662689 433.889313,499.336090 
	C444.903748,513.536072 460.463531,521.161560 476.561737,527.617249 
	C500.895660,537.375549 526.390137,542.865906 552.336792,545.920532 
	C571.429810,548.168274 590.642700,549.419861 609.815857,550.944092 
	C613.581116,551.243469 616.922607,551.284302 616.971130,556.337769 
	C617.018921,561.322083 613.710449,561.921143 609.946289,561.978638 
	C586.815491,562.331787 563.684265,562.662842 540.062805,563.001282 
z"/>
<path fill="#1A2857" opacity="1.000000" stroke="none" 
	d="
M999.764038,362.247192 
	C1013.270325,380.333618 1019.302368,400.045898 1016.203491,422.365784 
	C1013.227417,443.801575 1002.930542,461.441803 988.500732,476.954071 
	C965.045349,502.169128 937.266724,521.577942 906.933716,537.624573 
	C888.226990,547.520691 868.870911,555.720703 848.661377,561.943787 
	C847.396362,562.333252 846.110291,562.744995 844.804871,562.898621 
	C835.320740,564.013794 832.642151,560.963501 832.981873,551.421692 
	C833.868958,526.505981 834.458191,501.577515 834.903992,476.649445 
	C835.040283,469.026733 834.637329,461.359070 833.912903,453.766266 
	C833.200500,446.300171 837.045105,442.149628 843.163452,439.521637 
	C858.972778,432.731110 874.040649,424.612000 887.002441,413.241943 
	C908.282959,394.574585 906.978210,370.922333 885.225403,353.233429 
	C864.891296,336.698212 840.516357,328.641510 815.390076,323.243530 
	C796.948303,319.281616 778.212219,316.489502 759.489258,314.101929 
	C745.364502,312.300781 731.057007,311.898926 716.821594,311.024292 
	C713.280579,310.806732 711.132568,309.688568 711.029602,305.796936 
	C710.923706,301.790771 712.779785,300.030365 716.721008,299.977448 
	C738.678040,299.682526 760.634888,299.035828 782.590820,299.071930 
	C811.332275,299.119232 839.900269,301.680969 868.359924,305.777588 
	C895.565918,309.693756 922.207642,315.585907 947.718628,326.050385 
	C965.250427,333.241821 981.450867,342.486542 994.730408,356.266693 
	C996.451233,358.052338 997.926941,360.074127 999.764038,362.247192 
z"/>
<path fill="#1A2857" opacity="1.000000" stroke="none" 
	d="
M1136.354736,1329.437744 
	C1138.695190,1322.094849 1140.964844,1315.147705 1143.066650,1308.150146 
	C1143.961914,1305.169067 1145.583008,1303.782715 1148.817383,1303.962280 
	C1152.804199,1304.183472 1156.813232,1304.096802 1160.809937,1304.014160 
	C1163.773560,1303.952881 1164.996460,1305.271729 1164.988037,1308.213745 
	C1164.940674,1324.708130 1164.904541,1341.203247 1165.005005,1357.697266 
	C1165.036499,1362.873779 1161.432495,1361.913086 1158.411255,1361.972290 
	C1155.260254,1362.034058 1151.915894,1362.565552 1151.977661,1357.509033 
	C1152.132324,1344.862671 1152.028809,1332.213135 1150.925293,1319.252441 
	C1149.682861,1322.798828 1148.344482,1326.315186 1147.216553,1329.897583 
	C1144.324951,1339.082397 1141.384766,1348.256470 1138.758789,1357.518311 
	C1137.646606,1361.441406 1135.228394,1362.091919 1131.680908,1362.072021 
	C1128.156006,1362.052246 1125.778076,1361.442871 1124.631714,1357.496582 
	C1121.297974,1346.020630 1117.602173,1334.649658 1114.031372,1323.242798 
	C1113.712036,1322.223022 1113.269287,1321.241699 1111.995972,1320.387085 
	C1111.995972,1332.155273 1112.020142,1343.923706 1111.986084,1355.691772 
	C1111.968262,1361.831909 1111.633179,1361.892944 1105.417847,1362.061401 
	C1101.254883,1362.174438 1099.905151,1360.590698 1099.946533,1356.517334 
	C1100.105957,1340.857178 1100.099243,1325.193481 1099.949463,1309.533203 
	C1099.910889,1305.520508 1101.177734,1303.602905 1105.375854,1303.976807 
	C1107.524536,1304.168213 1109.706665,1303.940674 1111.870361,1304.010254 
	C1121.349731,1304.314453 1119.698486,1302.040771 1122.949463,1312.810669 
	C1125.770020,1322.154907 1128.414062,1331.552490 1131.136108,1340.926514 
	C1131.637695,1340.994873 1132.139404,1341.063110 1132.641113,1341.131470 
	C1133.832642,1337.358643 1135.024292,1333.585815 1136.354736,1329.437744 
z"/>
<path fill="#1A2857" opacity="1.000000" stroke="none" 
	d="
M515.998718,1315.987671 
	C515.999512,1314.001709 515.993164,1312.503296 516.002136,1311.005005 
	C516.043945,1304.026367 516.058472,1304.013062 522.882385,1304.003540 
	C529.963867,1303.993652 529.987183,1303.993652 529.994690,1311.269165 
	C530.010010,1326.085938 530.019470,1340.902832 529.985962,1355.719604 
	C529.972046,1361.864746 529.751587,1361.710083 523.399841,1362.087402 
	C518.268066,1362.391968 516.560181,1360.476318 516.928955,1355.498535 
	C517.272217,1350.863403 516.898438,1346.179443 517.002136,1341.520508 
	C517.071716,1338.393433 515.857300,1336.910522 512.616333,1337.004272 
	C508.457977,1337.124878 504.292206,1337.105347 500.132263,1337.018433 
	C497.123291,1336.955566 495.982422,1338.380859 496.012726,1341.272583 
	C496.070312,1346.765381 495.872253,1352.262451 496.000000,1357.752563 
	C496.110565,1362.506592 492.832855,1362.092163 489.858826,1361.951050 
	C486.981232,1361.814453 483.029480,1363.235229 483.034973,1357.968140 
	C483.052368,1341.320312 483.056183,1324.672485 483.026581,1308.024658 
	C483.021851,1305.364258 484.126038,1304.225952 486.863342,1303.993042 
	C495.334656,1303.272095 495.982452,1303.769531 496.000763,1312.249146 
	C496.008301,1315.745117 496.091644,1319.242554 496.015686,1322.736572 
	C495.952667,1325.636719 497.139862,1327.095215 500.141876,1326.975464 
	C501.969604,1326.902466 503.803802,1327.012329 505.634705,1326.995117 
	C517.238586,1326.885742 515.868042,1328.145142 515.998718,1315.987671 
z"/>
<path fill="#1A2857" opacity="1.000000" stroke="none" 
	d="
M994.501831,1334.568848 
	C1002.005127,1343.701660 997.271423,1356.342407 987.520447,1360.545044 
	C979.010681,1364.212646 970.092896,1364.153076 961.256531,1361.177124 
	C954.766602,1358.991089 952.156616,1353.860718 951.114502,1347.649658 
	C950.610779,1344.647461 951.795349,1342.938354 955.187866,1342.993042 
	C959.780518,1343.067261 964.313416,1342.056885 965.898132,1348.783936 
	C966.396301,1350.898560 971.030579,1353.221558 973.826599,1353.292725 
	C976.855408,1353.369629 980.608582,1351.604492 982.847961,1349.416626 
	C985.718018,1346.612671 983.956177,1342.351074 979.853027,1340.901489 
	C974.082825,1338.863159 968.037415,1337.499023 962.456726,1335.054321 
	C954.460205,1331.551147 952.414978,1327.466064 953.038452,1318.899536 
	C953.522095,1312.253906 957.650696,1307.368652 964.729431,1304.957275 
	C971.368225,1302.695923 978.035034,1302.464966 984.782288,1304.433594 
	C992.120605,1306.574585 995.736572,1311.383057 996.302063,1319.841309 
	C989.562500,1322.506104 985.988708,1321.199097 981.870850,1316.411499 
	C980.176758,1314.441895 976.327209,1313.016479 973.804504,1313.434448 
	C971.233704,1313.860474 968.403931,1316.476318 967.062561,1318.895630 
	C966.444946,1320.009644 968.606201,1323.745483 970.398499,1324.862061 
	C973.113770,1326.553589 976.685181,1326.799194 979.751526,1328.015381 
	C984.643799,1329.955688 989.420044,1332.188721 994.501831,1334.568848 
z"/>
<path fill="#1A2857" opacity="1.000000" stroke="none" 
	d="
M415.586060,1364.142822 
	C420.092743,1363.969727 423.984283,1363.428711 427.191376,1367.538818 
	C428.286743,1368.942505 432.700714,1368.937744 434.937775,1368.000122 
	C438.540436,1366.490356 438.503479,1362.879883 437.437714,1359.432373 
	C422.078430,1361.428833 417.183990,1359.770142 413.158539,1351.284790 
	C409.116180,1342.764038 410.877014,1331.383667 417.172913,1325.339355 
	C422.571503,1320.156494 430.097931,1319.554932 437.783051,1322.307007 
	C441.316528,1321.924194 444.853333,1321.290283 448.381165,1321.336914 
	C449.251587,1321.348267 450.819580,1323.562988 450.835754,1324.781128 
	C451.008270,1337.775269 451.251892,1350.783813 450.787750,1363.764038 
	C450.563202,1370.043091 446.887604,1374.481812 440.432373,1376.310913 
	C434.193878,1378.078979 428.038177,1378.109619 421.837616,1376.375244 
	C417.934479,1375.283569 414.738525,1373.145386 413.781708,1369.066162 
	C413.445068,1367.630981 414.662048,1365.831299 415.586060,1364.142822 
M434.376038,1351.129883 
	C438.974335,1346.638794 440.557281,1339.462158 437.358429,1334.427979 
	C436.114563,1332.470459 433.265839,1330.400879 431.180481,1330.433838 
	C429.165680,1330.465454 426.139435,1332.763306 425.438385,1334.734497 
	C424.274933,1338.006104 423.991882,1341.900024 424.471527,1345.375244 
	C425.209991,1350.725586 428.002533,1352.229736 434.376038,1351.129883 
z"/>
<path fill="#1A2857" opacity="1.000000" stroke="none" 
	d="
M1053.186768,1306.525146 
	C1054.955566,1305.391479 1056.638428,1304.140381 1058.346191,1304.105591 
	C1067.836548,1303.911743 1077.335205,1304.134033 1086.826172,1303.955811 
	C1090.724487,1303.882568 1092.094116,1305.319458 1092.067017,1309.208496 
	C1092.040527,1313.024536 1090.405518,1314.118774 1086.908203,1314.026489 
	C1081.415649,1313.881470 1075.912109,1314.149902 1070.420410,1313.991211 
	C1065.317017,1313.843750 1066.015015,1317.380249 1066.027954,1320.479614 
	C1066.040894,1323.551880 1065.252319,1327.145264 1070.380737,1327.003540 
	C1075.539551,1326.860718 1080.708984,1327.120972 1085.869019,1327.002686 
	C1089.786865,1326.913086 1089.983521,1329.325562 1090.007690,1332.250854 
	C1090.031982,1335.182739 1089.316406,1337.067993 1085.865234,1336.994263 
	C1080.870972,1336.887573 1075.870117,1337.096069 1070.875977,1336.985718 
	C1067.622681,1336.913940 1066.099609,1337.964722 1065.954224,1341.526245 
	C1065.526733,1352.002686 1065.394775,1351.993774 1075.925903,1352.001709 
	C1080.256592,1352.005005 1084.589844,1352.128174 1088.916992,1352.010864 
	C1092.869141,1351.903809 1092.963745,1354.414307 1093.007080,1357.300659 
	C1093.051636,1360.274170 1092.229004,1362.028442 1088.817261,1361.998047 
	C1078.324463,1361.904541 1067.829590,1361.888306 1057.337280,1362.008667 
	C1053.590576,1362.051636 1052.973389,1360.021606 1052.989502,1356.936646 
	C1053.076538,1340.281006 1053.079834,1323.625000 1053.186768,1306.525146 
z"/>
<path fill="#1A2857" opacity="1.000000" stroke="none" 
	d="
M294.285095,1332.627686 
	C299.749725,1321.489258 304.665131,1319.637695 321.009399,1322.794678 
	C321.009399,1318.239746 321.291046,1313.826782 320.936646,1309.465454 
	C320.512573,1304.247070 323.470337,1303.898682 327.424225,1303.945435 
	C331.220490,1303.990234 334.183533,1303.939453 334.085815,1309.305054 
	C333.810211,1324.438965 334.064697,1339.582031 333.925842,1354.719727 
	C333.904846,1357.010498 333.011169,1361.216064 332.330750,1361.255493 
	C328.786407,1361.461426 325.179352,1360.613159 321.597656,1360.106934 
	C321.294525,1360.063965 321.017487,1359.836426 320.601654,1359.632568 
	C315.766571,1362.251709 310.842102,1363.933838 305.021729,1362.209351 
	C298.070038,1360.149414 294.173370,1355.436646 293.372498,1348.783447 
	C292.751984,1343.628418 293.826263,1338.269409 294.285095,1332.627686 
M316.349274,1330.187256 
	C311.887756,1328.467651 308.153412,1330.359619 307.351624,1334.360229 
	C306.350708,1339.354126 306.309753,1344.896118 307.411133,1349.855591 
	C308.505096,1354.781494 315.228058,1355.410278 318.631134,1351.501221 
	C323.677795,1345.704102 322.896210,1335.747803 316.349274,1330.187256 
z"/>
<path fill="#1A2857" opacity="1.000000" stroke="none" 
	d="
M621.560425,1362.075928 
	C618.764038,1361.579224 616.355591,1361.113159 612.970398,1360.458252 
	C612.970398,1364.517090 612.850647,1368.571899 613.000427,1372.616821 
	C613.190430,1377.747559 609.560730,1376.964600 606.486572,1376.973633 
	C603.393433,1376.982788 599.943726,1377.700806 599.984009,1372.590088 
	C600.107666,1356.928223 599.965210,1341.264282 600.123108,1325.603027 
	C600.137878,1324.133789 601.421509,1321.514526 602.323792,1321.420410 
	C606.049377,1321.031738 610.301819,1319.435303 612.637817,1323.216064 
	C616.557800,1322.424805 620.057800,1321.224854 623.595581,1321.100464 
	C632.759521,1320.778076 637.540588,1324.223267 640.043640,1333.045410 
	C642.158386,1340.499023 641.502563,1347.883667 637.540649,1354.719238 
	C634.065674,1360.714478 628.662659,1362.844849 621.560425,1362.075928 
M618.521240,1329.858765 
	C612.121033,1334.209351 609.961731,1342.038696 613.799927,1349.075928 
	C614.915710,1351.121826 617.682678,1353.536865 619.662720,1353.510620 
	C621.983276,1353.479980 625.976257,1351.239868 626.254578,1349.484009 
	C627.103699,1344.128052 627.046265,1338.469604 626.286560,1333.077637 
	C625.840759,1329.913940 622.665710,1328.521118 618.521240,1329.858765 
z"/>
<path fill="#1A2857" opacity="1.000000" stroke="none" 
	d="
M654.938110,1333.995605 
	C652.447998,1333.378662 650.394287,1332.760620 648.340515,1332.142578 
	C649.554810,1329.334351 650.063904,1325.766357 652.116394,1323.861084 
	C658.131958,1318.276611 672.634705,1318.765991 678.658752,1324.347534 
	C680.047852,1325.634521 681.566528,1327.565186 681.696594,1329.299194 
	C682.488892,1339.861572 682.897217,1350.452881 683.449707,1361.350830 
	C678.482910,1361.889038 674.297729,1363.538330 671.539368,1360.059204 
	C667.235596,1361.096436 663.343567,1362.649536 659.381775,1362.854492 
	C652.284424,1363.221924 647.111389,1358.548462 646.224854,1351.920410 
	C645.484009,1346.381348 650.396851,1338.777222 656.091125,1337.249634 
	C659.098022,1336.442993 662.359192,1336.610352 665.398254,1335.886963 
	C667.000854,1335.505371 668.372986,1334.155518 669.849243,1333.242920 
	C668.889404,1331.697876 668.177185,1329.177856 666.906738,1328.855225 
	C665.327271,1328.453857 662.083130,1329.434937 661.670776,1330.579956 
	C660.442139,1333.991821 658.108582,1334.063110 654.938110,1333.995605 
M661.052612,1345.533569 
	C660.585510,1347.616821 659.543152,1349.804688 659.894409,1351.739258 
	C660.069702,1352.704590 663.053589,1354.085449 664.304443,1353.715332 
	C666.228699,1353.145874 668.312317,1351.539185 669.278503,1349.791992 
	C670.094727,1348.316040 670.159485,1345.009033 669.225952,1344.322510 
	C667.921814,1343.364014 665.375793,1344.020142 663.369873,1344.135986 
	C662.775024,1344.170410 662.209534,1344.711670 661.052612,1345.533569 
z"/>
<path fill="#1A2857" opacity="1.000000" stroke="none" 
	d="
M694.483765,1361.808594 
	C693.366211,1359.862305 692.141724,1358.004150 692.099182,1356.119385 
	C691.892456,1346.957397 691.843262,1337.783691 692.104919,1328.624634 
	C692.175903,1326.137817 693.063110,1321.902954 694.373657,1321.565186 
	C697.885559,1320.659424 702.278992,1319.445190 705.074463,1323.897461 
	C710.330566,1320.874268 715.596985,1318.707886 721.675110,1321.043213 
	C726.895081,1323.048584 729.824219,1326.629028 729.930420,1332.289062 
	C730.086792,1340.619263 729.812683,1348.959106 730.039001,1357.286133 
	C730.171875,1362.176270 727.149170,1362.112183 723.809021,1361.991943 
	C720.597229,1361.876343 716.826538,1362.875610 716.974609,1357.409424 
	C717.164001,1350.415039 716.879517,1343.408325 717.030029,1336.411987 
	C717.113159,1332.544312 715.617920,1330.238159 711.702026,1330.156128 
	C707.762695,1330.073364 705.344482,1332.302368 705.144653,1336.187622 
	C704.870972,1341.507812 705.088501,1346.851196 704.988098,1352.182739 
	C704.802429,1362.037476 706.839233,1362.281006 694.483765,1361.808594 
z"/>
<path fill="#1A2857" opacity="1.000000" stroke="none" 
	d="
M207.599960,1332.854004 
	C211.515778,1323.227417 220.697891,1318.213623 230.162750,1320.265991 
	C239.322189,1322.252319 245.107269,1330.109497 245.042297,1339.989258 
	C245.018738,1343.571411 243.856293,1345.124878 240.135330,1345.032471 
	C233.185699,1344.859985 226.228729,1344.982910 219.179169,1344.982910 
	C218.283386,1349.571045 219.768082,1352.391846 223.341522,1354.020996 
	C227.052231,1355.712891 229.005508,1352.956055 231.846069,1351.186646 
	C234.724289,1349.393799 239.114838,1350.007812 242.855698,1349.757324 
	C242.938889,1349.751831 243.569183,1352.131104 243.271774,1353.213013 
	C241.856430,1358.361450 237.929688,1361.318848 233.165497,1362.632202 
	C215.220688,1367.578979 202.361832,1354.837769 206.670181,1336.616455 
	C206.937531,1335.485840 207.177490,1334.348755 207.599960,1332.854004 
M222.132462,1330.447144 
	C221.080261,1332.127075 220.028061,1333.807007 218.402954,1336.401611 
	C223.595108,1336.401611 227.471085,1336.401611 231.412155,1336.401611 
	C230.621964,1329.598633 228.598389,1328.229004 222.132462,1330.447144 
z"/>
<path fill="#1A2857" opacity="1.000000" stroke="none" 
	d="
M276.286957,1361.650146 
	C275.362579,1360.771362 274.779205,1360.013672 275.086304,1360.412476 
	C269.845673,1361.348022 265.445801,1362.799683 261.061981,1362.752808 
	C255.137222,1362.689697 251.199219,1358.824829 250.160492,1353.598999 
	C248.988266,1347.701782 251.258530,1341.287231 256.317139,1339.090454 
	C260.292847,1337.364136 264.867981,1337.049683 269.135040,1335.946411 
	C270.712067,1335.538574 272.169678,1334.668701 273.681763,1334.009644 
	C272.690582,1332.202515 272.101379,1329.731323 270.575470,1328.807739 
	C269.444153,1328.123169 265.939117,1328.942749 265.489746,1329.968140 
	C263.549255,1334.395142 260.071198,1334.192749 256.371643,1333.974976 
	C252.182556,1333.728271 250.984955,1331.683960 252.786362,1327.683838 
	C255.225876,1322.266968 260.256500,1320.514404 265.402710,1320.250000 
	C269.747589,1320.026733 274.356293,1320.847046 278.518738,1322.211060 
	C283.605713,1323.878052 285.683380,1328.423462 285.898071,1333.549316 
	C286.259155,1342.171265 286.414154,1350.804443 286.439911,1359.433594 
	C286.442352,1360.252441 284.985504,1361.673950 284.082214,1361.782104 
	C281.633118,1362.075806 279.117340,1361.813354 276.286957,1361.650146 
M262.319702,1348.767212 
	C262.554779,1353.251953 265.315643,1354.478027 269.141693,1353.603271 
	C272.008759,1352.947754 275.353302,1345.819824 273.463928,1344.773071 
	C271.448395,1343.656372 268.149170,1344.436401 265.542572,1345.000122 
	C264.389252,1345.249390 263.561554,1347.004883 262.319702,1348.767212 
z"/>
<path fill="#1A2857" opacity="1.000000" stroke="none" 
	d="
M890.001404,1361.988892 
	C885.047180,1362.591919 883.842712,1360.363647 883.939514,1356.176514 
	C884.154663,1346.866821 883.861816,1337.545166 884.100281,1328.236694 
	C884.160461,1325.889648 885.059509,1321.827759 886.233643,1321.570679 
	C889.789246,1320.791992 894.135681,1319.381958 896.828064,1323.431641 
	C899.669617,1322.413940 902.373047,1321.163818 905.212830,1320.481201 
	C913.974060,1318.375488 921.481873,1323.759033 921.874939,1332.744141 
	C922.238037,1341.044800 921.867310,1349.375000 922.001587,1357.689209 
	C922.084900,1362.846191 918.455688,1361.925903 915.429749,1361.971313 
	C912.307800,1362.018066 908.854553,1362.620483 908.984131,1357.548096 
	C909.154053,1350.899536 908.962036,1344.242554 909.004639,1337.589722 
	C909.029175,1333.763550 908.358704,1330.442749 903.688904,1330.118774 
	C899.380737,1329.820068 897.190247,1332.192261 896.943298,1336.327271 
	C896.548584,1342.938232 896.055847,1349.559082 896.081360,1356.173828 
	C896.097412,1360.348877 894.960205,1362.592773 890.001404,1361.988892 
z"/>
<path fill="#1A2857" opacity="1.000000" stroke="none" 
	d="
M379.181763,1323.352051 
	C388.909607,1318.789062 394.691437,1318.895752 399.576385,1324.298096 
	C401.312164,1326.217651 402.707123,1329.155273 402.827393,1331.695923 
	C403.228180,1340.162476 402.809235,1348.664429 403.048096,1357.143311 
	C403.181610,1361.882080 400.453583,1362.021484 396.971771,1362.042358 
	C393.426910,1362.063477 390.776703,1361.770996 390.951385,1357.085693 
	C391.192932,1350.606934 391.190399,1344.100098 390.881775,1337.625000 
	C390.565979,1330.998901 386.282227,1327.942505 381.601410,1331.057373 
	C379.779663,1332.269653 378.370483,1335.256348 378.185303,1337.548706 
	C377.704498,1343.500366 377.734650,1349.531250 378.081635,1355.500244 
	C378.370483,1360.468506 376.744354,1362.393188 371.609833,1362.088135 
	C365.253693,1361.710449 365.038696,1361.862793 365.013947,1355.735840 
	C364.975677,1346.252075 364.883850,1336.765503 365.099518,1327.286499 
	C365.145630,1325.260376 366.265900,1321.620728 367.138336,1321.544556 
	C370.350372,1321.263184 373.671417,1322.133545 376.938721,1322.651245 
	C377.618652,1322.759033 378.244049,1323.210449 379.181763,1323.352051 
z"/>
<path fill="#1A2857" opacity="1.000000" stroke="none" 
	d="
M1033.416260,1315.082520 
	C1031.980469,1316.894531 1030.183228,1318.655884 1030.144165,1320.455322 
	C1029.883423,1332.443848 1029.750122,1344.447876 1030.100342,1356.431519 
	C1030.265259,1362.074341 1027.173462,1361.971436 1023.173950,1362.074707 
	C1018.906555,1362.184814 1016.788391,1361.164917 1016.911133,1356.275879 
	C1017.203613,1344.622437 1016.824524,1332.952637 1017.079285,1321.297363 
	C1017.181641,1316.613159 1015.791443,1314.373413 1010.886597,1314.978394 
	C1009.410217,1315.160400 1007.891479,1315.011108 1006.392334,1314.995361 
	C1000.385986,1314.932373 998.406006,1312.344971 1000.282715,1306.550415 
	C1000.622070,1305.502319 1002.306152,1304.199463 1003.384216,1304.185913 
	C1016.708008,1304.018555 1030.034546,1304.069580 1043.360352,1304.061890 
	C1047.555176,1304.059448 1046.913330,1307.164917 1046.965454,1309.750488 
	C1047.016846,1312.303467 1047.145874,1314.970581 1043.361938,1314.949585 
	C1040.197754,1314.932129 1037.032837,1315.012573 1033.416260,1315.082520 
z"/>
<path fill="#1A2857" opacity="1.000000" stroke="none" 
	d="
M586.857849,1332.994873 
	C584.265137,1332.156982 582.103027,1331.244629 579.883545,1330.504517 
	C577.988403,1329.872437 576.036682,1329.116699 574.091125,1329.059692 
	C573.193298,1329.033325 571.576843,1330.489990 571.506531,1331.371704 
	C571.427063,1332.368164 572.490112,1334.029785 573.456848,1334.426758 
	C576.199097,1335.552612 579.126953,1336.253540 582.015076,1336.991455 
	C590.196594,1339.082031 593.925781,1342.748291 593.973022,1348.867188 
	C594.025146,1355.617920 590.215393,1360.260132 582.224121,1362.278687 
	C576.151611,1363.812622 570.025024,1363.632446 564.283325,1360.611572 
	C563.263062,1360.074829 561.787231,1359.559570 561.468384,1358.687988 
	C560.407593,1355.789185 558.995911,1352.657593 559.272278,1349.763672 
	C559.442017,1347.986816 568.991455,1348.960693 570.471741,1351.144287 
	C572.609253,1354.297607 575.134888,1356.011963 578.792969,1353.926392 
	C579.944153,1353.269897 581.371033,1351.787842 581.338745,1350.723999 
	C581.304871,1349.607056 579.877808,1348.019043 578.697327,1347.552002 
	C575.785828,1346.399902 572.666443,1345.773560 569.631409,1344.932983 
	C562.465820,1342.948120 558.852112,1338.883911 559.045837,1333.030884 
	C559.250305,1326.853638 563.201599,1322.201294 570.441162,1321.291504 
	C575.196899,1320.693970 580.279785,1321.051147 584.975708,1322.079224 
	C589.931946,1323.164307 591.937134,1327.078979 591.538391,1332.607666 
	C590.157654,1332.732788 588.710571,1332.864014 586.857849,1332.994873 
z"/>
<path fill="#1A2857" opacity="1.000000" stroke="none" 
	d="
M201.073608,1351.894653 
	C201.578018,1353.173096 201.887161,1354.137329 201.939011,1355.115112 
	C202.277954,1361.505615 201.861389,1361.964844 195.511948,1361.988525 
	C187.192352,1362.019653 178.869354,1361.856201 170.554184,1362.049561 
	C166.570389,1362.142212 164.899826,1360.875488 164.945297,1356.659668 
	C165.115753,1340.854004 165.187347,1325.042603 164.919403,1309.239624 
	C164.827332,1303.808838 167.914078,1304.032349 171.644012,1303.946533 
	C175.673477,1303.853882 178.228836,1304.392456 178.091888,1309.530640 
	C177.777283,1321.336060 178.147583,1333.158691 177.931915,1344.968628 
	C177.850754,1349.412964 179.184601,1351.255981 183.867722,1351.086304 
	C189.484848,1350.882935 195.127655,1351.388306 201.073608,1351.894653 
z"/>
<path fill="#1A2857" opacity="1.000000" stroke="none" 
	d="
M832.919067,1345.277222 
	C834.807922,1352.225830 832.181152,1358.387329 825.591248,1360.993774 
	C818.299500,1363.877686 810.753296,1364.573486 803.584351,1360.200562 
	C802.472229,1359.522217 800.935974,1358.757202 800.614990,1357.717651 
	C799.810974,1355.113403 798.744812,1352.093506 799.411316,1349.692261 
	C799.925781,1347.838623 808.579956,1349.100830 810.098511,1351.099487 
	C812.282227,1353.973511 814.793579,1356.048096 818.503601,1354.034790 
	C819.639648,1353.418335 820.789551,1351.970337 820.973511,1350.757690 
	C821.096375,1349.948242 819.705566,1348.450439 818.673096,1348.011719 
	C815.789856,1346.786743 812.780090,1345.804810 809.749146,1344.992432 
	C801.298645,1342.727783 798.530457,1339.450439 799.036621,1332.000854 
	C799.422363,1326.323364 804.367493,1322.208252 811.264343,1320.895630 
	C816.913208,1319.820557 822.318665,1320.089233 826.983398,1323.254395 
	C829.173157,1324.740234 830.357483,1327.813477 831.705139,1330.324219 
	C831.913208,1330.712036 830.476196,1332.712402 829.918701,1332.661621 
	C826.622681,1332.361938 823.321594,1331.836792 820.110291,1331.034912 
	C818.966431,1330.749268 818.016357,1328.743042 817.069885,1328.810791 
	C815.175659,1328.946167 813.344849,1329.970093 811.487915,1330.627197 
	C812.437134,1332.059082 813.072754,1334.192749 814.397461,1334.784790 
	C817.698853,1336.260498 821.576477,1336.544312 824.727539,1338.231445 
	C827.750977,1339.850342 830.151489,1342.632446 832.919067,1345.277222 
z"/>
<path fill="#1A2857" opacity="1.000000" stroke="none" 
	d="
M773.630127,1321.131348 
	C776.221619,1321.059448 778.531860,1320.535156 780.514160,1321.120850 
	C784.042053,1322.163086 788.044067,1323.157593 790.580627,1325.528076 
	C792.789368,1327.592163 793.249878,1331.526978 794.482849,1334.635132 
	C790.985718,1335.011108 787.487366,1335.613159 783.992371,1335.594604 
	C783.179077,1335.590332 782.526306,1333.317749 781.531738,1332.369995 
	C780.295532,1331.192139 778.827209,1329.617065 777.371887,1329.519897 
	C776.274597,1329.446533 774.511169,1331.206055 773.957458,1332.531250 
	C771.423462,1338.595703 771.428955,1344.827881 774.135193,1350.834839 
	C774.710144,1352.111084 776.505371,1353.543335 777.785767,1353.589478 
	C778.973877,1353.632324 780.592712,1352.154785 781.378174,1350.932861 
	C783.529846,1347.585449 789.803650,1345.370605 793.209290,1347.471802 
	C794.162048,1348.059448 794.741211,1350.309814 794.496338,1351.610107 
	C792.894897,1360.112915 783.871277,1364.673950 773.628357,1362.727905 
	C761.373596,1360.399658 758.101807,1348.166260 759.206055,1338.382935 
	C760.177185,1329.779541 764.076599,1323.283569 773.630127,1321.131348 
z"/>
<path fill="#1A2857" opacity="1.000000" stroke="none" 
	d="
M356.000488,1335.012085 
	C355.994934,1342.669434 355.773285,1349.838257 356.056610,1356.986938 
	C356.259399,1362.102417 353.187653,1362.095093 349.619202,1362.014038 
	C346.262695,1361.937622 342.840088,1362.550171 342.953613,1357.227661 
	C343.177246,1346.742065 343.175568,1336.244873 342.954803,1325.759033 
	C342.842529,1320.426880 346.286499,1321.070312 349.631989,1320.985718 
	C353.212738,1320.895142 356.456207,1320.924561 356.027222,1326.026245 
	C355.790924,1328.836670 355.994965,1331.684082 356.000488,1335.012085 
z"/>
<path fill="#1A2857" opacity="1.000000" stroke="none" 
	d="
M550.362915,1361.566406 
	C539.000610,1362.616699 538.995483,1362.616699 539.000000,1351.666626 
	C539.003601,1342.875732 539.108032,1334.083862 538.992554,1325.294556 
	C538.943359,1321.544312 541.050415,1320.625244 544.061829,1321.072388 
	C546.910339,1321.495239 551.665833,1319.006348 551.815979,1324.423218 
	C552.137329,1336.021973 551.894836,1347.636841 551.806824,1359.244629 
	C551.801331,1359.965454 551.133728,1360.681274 550.362915,1361.566406 
z"/>
<path fill="#1A2857" opacity="1.000000" stroke="none" 
	d="
M751.993530,1355.789673 
	C752.749390,1361.625244 749.565491,1361.985596 745.343323,1362.103760 
	C740.550781,1362.237793 739.894531,1359.862549 739.955078,1355.948486 
	C740.109863,1345.953979 740.175537,1335.951782 739.943787,1325.960449 
	C739.835938,1321.308594 742.341553,1320.910522 745.933899,1320.956177 
	C749.386719,1321.000122 752.156738,1321.052490 752.048706,1325.829590 
	C751.826416,1335.654541 751.990845,1345.488403 751.993530,1355.789673 
z"/>
<path fill="#1A2857" opacity="1.000000" stroke="none" 
	d="
M873.118408,1321.947144 
	C873.590393,1334.349121 873.834045,1346.431641 873.884949,1358.515137 
	C873.904114,1363.075195 870.189575,1361.822998 867.622253,1361.943848 
	C864.999695,1362.067627 862.036438,1362.390137 862.045837,1358.266235 
	C862.071167,1347.153809 862.068054,1336.041382 862.029968,1324.929077 
	C862.020691,1322.228027 863.235229,1320.891968 865.936279,1321.055176 
	C868.231750,1321.193970 870.521240,1321.433228 873.118408,1321.947144 
z"/>
<path fill="#1A2857" opacity="1.000000" stroke="none" 
	d="
M1186.287598,1361.688599 
	C1177.093018,1362.197021 1171.610840,1356.283813 1173.928833,1348.882446 
	C1175.619629,1343.483887 1178.219604,1341.849121 1184.438232,1342.003540 
	C1189.503052,1342.129150 1192.401611,1344.788330 1193.631348,1349.497925 
	C1194.798462,1353.967651 1192.736328,1358.393188 1188.473999,1360.732666 
	C1187.893433,1361.051514 1187.273071,1361.297974 1186.287598,1361.688599 
M1176.722290,1354.244385 
	C1177.444702,1355.099121 1178.167114,1355.953735 1179.696167,1357.762939 
	C1179.895386,1353.726440 1179.339111,1350.791260 1180.371094,1348.606201 
	C1181.190796,1346.870361 1183.953491,1346.052368 1185.835205,1344.838745 
	C1179.475830,1343.248901 1175.909912,1346.543457 1176.722290,1354.244385 
M1190.138062,1348.213135 
	C1186.784424,1349.876587 1186.592285,1351.436157 1190.591675,1355.892944 
	C1190.591675,1353.506104 1190.591675,1351.119263 1190.138062,1348.213135 
z"/>
<path fill="#1A2857" opacity="1.000000" stroke="none" 
	d="
M861.036682,1310.818604 
	C861.670166,1308.350342 862.030762,1304.757202 863.016113,1304.577026 
	C866.480408,1303.942749 870.399780,1303.800171 873.628113,1304.939575 
	C874.778076,1305.345581 874.776489,1309.961792 874.607300,1312.611816 
	C874.552795,1313.466187 872.359131,1314.611084 871.005432,1314.855835 
	C868.930115,1315.231079 866.591309,1315.397461 864.638245,1314.782471 
	C863.213684,1314.333984 862.230347,1312.484009 861.036682,1310.818604 
z"/>
<path fill="#1A2857" opacity="1.000000" stroke="none" 
	d="
M739.019409,1309.063354 
	C738.720032,1305.204102 740.338745,1303.779419 743.690979,1304.001465 
	C745.333740,1304.110229 746.996155,1304.124023 748.637817,1304.010498 
	C752.765381,1303.724976 753.045959,1306.339111 753.013428,1309.442017 
	C752.981934,1312.444824 752.971497,1315.245117 748.750732,1314.980591 
	C747.272156,1314.887817 745.770020,1314.859741 744.299683,1315.009277 
	C740.127808,1315.433472 738.560974,1313.465576 739.019409,1309.063354 
z"/>
<path fill="#1A2857" opacity="1.000000" stroke="none" 
	d="
M348.151459,1304.013550 
	C351.986725,1304.224365 356.616638,1302.774170 355.901978,1308.860840 
	C355.664490,1310.883545 354.749054,1314.342896 353.763641,1314.483521 
	C350.506378,1314.948486 346.700043,1314.952271 343.890106,1313.554077 
	C342.712585,1312.968262 343.190094,1308.372192 343.604523,1305.706421 
	C343.722137,1304.950073 346.268188,1304.571167 348.151459,1304.013550 
z"/>
<path fill="#1A2857" opacity="1.000000" stroke="none" 
	d="
M542.376343,1314.918213 
	C537.049438,1313.476318 539.174561,1309.500366 539.409302,1306.670288 
	C539.493042,1305.659790 542.457764,1304.239380 544.181030,1304.126099 
	C551.654846,1303.635620 552.876160,1304.829224 551.895752,1311.405640 
	C550.974304,1317.586548 545.962952,1314.042358 542.376343,1314.918213 
z"/>
<path fill="#000000" opacity="1.000000" stroke="none" 
	d="
M817.993042,1045.999512 
	C808.666809,1045.993530 799.837646,1045.889771 791.012329,1046.029175 
	C787.418640,1046.086060 785.959778,1044.807129 785.970520,1041.104370 
	C786.057739,1010.957520 786.019653,980.810242 786.028564,950.663147 
	C786.029236,948.408325 786.121155,946.099854 789.247620,946.106934 
	C802.899048,946.137817 816.636658,945.268921 830.180237,946.506958 
	C847.668518,948.105469 857.705566,959.239563 861.430603,975.998535 
	C864.561218,990.083496 865.799194,1004.286011 860.335876,1018.159302 
	C853.769775,1034.833130 842.618286,1048.253296 817.993042,1045.999512 
z"/>
<path fill="#000000" opacity="1.000000" stroke="none" 
	d="
M434.040497,1351.329224 
	C428.002533,1352.229736 425.209991,1350.725586 424.471527,1345.375244 
	C423.991882,1341.900024 424.274933,1338.006104 425.438385,1334.734497 
	C426.139435,1332.763306 429.165680,1330.465454 431.180481,1330.433838 
	C433.265839,1330.400879 436.114563,1332.470459 437.358429,1334.427979 
	C440.557281,1339.462158 438.974335,1346.638794 434.040497,1351.329224 
z"/>
<path fill="#000000" opacity="1.000000" stroke="none" 
	d="
M316.668030,1330.370361 
	C322.896210,1335.747803 323.677795,1345.704102 318.631134,1351.501221 
	C315.228058,1355.410278 308.505096,1354.781494 307.411133,1349.855591 
	C306.309753,1344.896118 306.350708,1339.354126 307.351624,1334.360229 
	C308.153412,1330.359619 311.887756,1328.467651 316.668030,1330.370361 
z"/>
<path fill="#000000" opacity="1.000000" stroke="none" 
	d="
M618.850342,1329.682129 
	C622.665710,1328.521118 625.840759,1329.913940 626.286560,1333.077637 
	C627.046265,1338.469604 627.103699,1344.128052 626.254578,1349.484009 
	C625.976257,1351.239868 621.983276,1353.479980 619.662720,1353.510620 
	C617.682678,1353.536865 614.915710,1351.121826 613.799927,1349.075928 
	C609.961731,1342.038696 612.121033,1334.209351 618.850342,1329.682129 
z"/>
<path fill="#000000" opacity="1.000000" stroke="none" 
	d="
M661.341553,1345.277100 
	C662.209534,1344.711670 662.775024,1344.170410 663.369873,1344.135986 
	C665.375793,1344.020142 667.921814,1343.364014 669.225952,1344.322510 
	C670.159485,1345.009033 670.094727,1348.316040 669.278503,1349.791992 
	C668.312317,1351.539185 666.228699,1353.145874 664.304443,1353.715332 
	C663.053589,1354.085449 660.069702,1352.704590 659.894409,1351.739258 
	C659.543152,1349.804688 660.585510,1347.616821 661.341553,1345.277100 
z"/>
<path fill="#000000" opacity="1.000000" stroke="none" 
	d="
M222.421753,1330.206787 
	C228.598389,1328.229004 230.621964,1329.598633 231.412155,1336.401611 
	C227.471085,1336.401611 223.595108,1336.401611 218.402954,1336.401611 
	C220.028061,1333.807007 221.080261,1332.127075 222.421753,1330.206787 
z"/>
<path fill="#000000" opacity="1.000000" stroke="none" 
	d="
M262.452850,1348.421875 
	C263.561554,1347.004883 264.389252,1345.249390 265.542572,1345.000122 
	C268.149170,1344.436401 271.448395,1343.656372 273.463928,1344.773071 
	C275.353302,1345.819824 272.008759,1352.947754 269.141693,1353.603271 
	C265.315643,1354.478027 262.554779,1353.251953 262.452850,1348.421875 
z"/>
<path fill="#000000" opacity="1.000000" stroke="none" 
	d="
M1176.552368,1353.928223 
	C1175.909912,1346.543457 1179.475830,1343.248901 1185.835205,1344.838745 
	C1183.953491,1346.052368 1181.190796,1346.870361 1180.371094,1348.606201 
	C1179.339111,1350.791260 1179.895386,1353.726440 1179.696167,1357.762939 
	C1178.167114,1355.953735 1177.444702,1355.099121 1176.552368,1353.928223 
z"/>
<path fill="#000000" opacity="1.000000" stroke="none" 
	d="
M1190.364868,1348.472778 
	C1190.591675,1351.119263 1190.591675,1353.506104 1190.591675,1355.892944 
	C1186.592285,1351.436157 1186.784424,1349.876587 1190.364868,1348.472778 
z"/>
</svg>