<svg version="1.1" id="Layer_1" xmlns="http://www.w3.org/2000/svg" xmlns:xlink="http://www.w3.org/1999/xlink" x="0px" y="0px"
	 width="100%" viewBox="0 0 1335 1469" enable-background="new 0 0 1335 1469" xml:space="preserve">
<path fill="#FFFFFF" opacity="1.000000" stroke="none" 
	d="
M680.000000,1470.000000 
	C453.333374,1470.000000 227.166748,1470.000000 1.000091,1470.000000 
	C1.000061,980.333435 1.000061,490.666931 1.000030,1.000288 
	C445.999786,1.000192 890.999573,1.000192 1335.999512,1.000096 
	C1335.999756,490.666382 1335.999756,980.332764 1335.999878,1469.999512 
	C1117.500000,1470.000000 899.000000,1470.000000 680.000000,1470.000000 
M612.500000,890.000000 
	C604.070618,890.000000 595.641174,890.000000 586.789368,890.000000 
	C586.789368,937.679932 586.789368,984.743774 586.789368,1031.658447 
	C558.619812,1031.658447 530.888428,1031.658447 502.723969,1031.658447 
	C502.723969,984.254089 502.723969,937.190308 502.723969,890.374634 
	C477.220093,890.374634 452.154358,890.374634 427.380646,890.374634 
	C427.380646,1009.137451 427.380646,1127.525513 427.380646,1245.778809 
	C452.707916,1245.778809 477.654144,1245.778809 503.034637,1245.778809 
	C503.034637,1193.163452 503.034637,1140.766968 503.034637,1088.253174 
	C531.202087,1088.253174 558.932617,1088.253174 587.098694,1088.253174 
	C587.098694,1140.901001 587.098694,1193.297363 587.098694,1245.714355 
	C612.267151,1245.714355 636.998169,1245.714355 661.709229,1245.714355 
	C661.709229,1127.039551 661.709229,1008.650696 661.709229,890.000000 
	C645.446533,890.000000 629.473267,890.000000 612.500000,890.000000 
M291.466187,941.920105 
	C302.928925,947.556213 306.974060,958.010010 308.916107,969.545410 
	C310.154694,976.902161 310.587494,984.394592 311.363342,991.655396 
	C335.719391,991.655396 359.784637,991.655396 385.317688,991.655396 
	C383.847900,976.808350 383.178467,962.318359 380.815582,948.110046 
	C377.778687,929.848633 368.670227,914.473877 353.676086,903.413330 
	C336.987457,891.102783 317.362549,886.363403 297.104614,885.214355 
	C283.246124,884.428284 269.214539,885.001587 255.369766,886.215210 
	C244.785736,887.143188 234.163773,889.291016 223.931412,892.205017 
	C207.027313,897.019104 192.523987,906.326233 181.535126,920.126892 
	C168.614456,936.353577 163.962036,955.696167 163.110275,975.990784 
	C162.772049,984.049316 163.264862,992.201355 164.098785,1000.236145 
	C165.207855,1010.921875 168.594543,1021.070068 173.970718,1030.376343 
	C180.531372,1041.733154 188.195068,1052.290405 198.822815,1060.299072 
	C207.639297,1066.942627 216.220688,1073.968750 225.471069,1079.952148 
	C247.593445,1094.261597 270.307251,1107.668335 292.229614,1122.269165 
	C299.892059,1127.372559 305.487701,1135.059570 309.196533,1144.046143 
	C312.770691,1152.706299 312.576324,1161.326660 310.903778,1170.010498 
	C308.455780,1182.720337 300.408295,1192.383301 287.581451,1196.111694 
	C279.609314,1198.428955 271.732117,1198.309814 263.822906,1196.925171 
	C254.206848,1195.241577 246.132004,1191.005005 240.946655,1182.093750 
	C236.144669,1173.841431 234.726074,1164.794189 234.091156,1155.596436 
	C233.625946,1148.857300 234.000000,1142.059937 234.000000,1135.292969 
	C208.386780,1135.292969 183.321304,1135.292969 158.160919,1135.292969 
	C157.536926,1157.591187 157.462173,1179.500732 165.976456,1200.427490 
	C173.203384,1218.190186 185.104980,1231.523071 202.377716,1240.075317 
	C219.359756,1248.483643 237.672226,1250.898071 256.195465,1251.859009 
	C265.410278,1252.336914 274.699493,1251.195068 283.959381,1251.029785 
	C301.694885,1250.713501 318.903107,1247.660400 335.336517,1240.967285 
	C357.307892,1232.018433 372.850952,1216.770020 381.098358,1194.163696 
	C387.289764,1177.193115 388.505310,1159.711060 387.990326,1141.938110 
	C387.628876,1129.463379 384.772614,1117.518677 379.602814,1106.201172 
	C370.094604,1085.385864 353.987549,1070.298218 335.240173,1058.254761 
	C318.950287,1047.789917 301.674438,1038.852051 284.768372,1029.356689 
	C271.564392,1021.940857 258.562714,1014.266113 248.831375,1002.297974 
	C237.766388,988.689636 236.271515,973.586182 242.336670,958.370544 
	C250.039261,939.047119 274.505005,935.364319 291.466187,941.920105 
M711.000000,1225.500000 
	C711.000000,1232.263184 711.000000,1239.026367 711.000000,1245.678467 
	C736.345520,1245.678467 761.073975,1245.678467 786.227234,1245.678467 
	C786.227234,1197.633667 786.227234,1149.909180 786.227234,1101.000000 
	C808.558105,1101.000000 830.460571,1101.039062 852.362671,1100.984497 
	C864.362671,1100.954590 875.959534,1098.343140 886.961914,1093.860474 
	C900.704529,1088.261475 912.443970,1079.877563 921.245789,1067.481079 
	C934.165222,1049.285278 938.501465,1028.534546 939.850769,1006.963257 
	C940.415588,997.932068 939.369568,988.796509 938.995178,979.710876 
	C938.250366,961.633606 933.864563,944.536926 924.951721,928.717590 
	C917.402588,915.318604 906.174866,905.754578 892.474548,899.275879 
	C877.330017,892.114197 860.842529,890.310303 844.419006,890.145447 
	C801.436279,889.714050 758.446289,889.997498 715.459229,890.010498 
	C714.028931,890.010925 712.598633,890.167847 711.000000,890.261658 
	C711.000000,1001.932007 711.000000,1113.216064 711.000000,1225.500000 
M1162.000000,937.453491 
	C1162.000000,921.697937 1162.000000,905.942322 1162.000000,890.336426 
	C1096.957153,890.336426 1032.563354,890.336426 968.340820,890.336426 
	C968.340820,1009.061584 968.340820,1127.450073 968.340820,1245.647217 
	C1034.408325,1245.647217 1100.135010,1245.647217 1165.628418,1245.647217 
	C1165.628418,1226.892700 1165.628418,1208.492676 1165.628418,1189.839844 
	C1124.645142,1189.839844 1084.033203,1189.839844 1043.227051,1189.839844 
	C1043.227051,1155.849121 1043.227051,1122.119385 1043.227051,1087.951538 
	C1079.849609,1087.951538 1116.248047,1087.951538 1152.737793,1087.951538 
	C1152.737793,1069.114258 1152.737793,1050.716187 1152.737793,1031.881470 
	C1116.079712,1031.881470 1079.681396,1031.881470 1043.295776,1031.881470 
	C1043.295776,1003.044922 1043.295776,974.647644 1043.295776,945.814453 
	C1082.987549,945.814453 1122.385376,945.814453 1162.000000,945.814453 
	C1162.000000,943.064087 1162.000000,940.750061 1162.000000,937.453491 
M783.000061,463.634369 
	C782.666992,460.876801 782.194397,458.127747 782.025146,455.360138 
	C781.301331,443.518158 780.611267,431.673462 780.017334,419.824341 
	C779.538757,410.275208 768.333618,400.967804 758.707703,406.835815 
	C752.494812,410.623230 746.507629,414.787018 740.483521,418.876862 
	C716.638123,435.065826 692.858521,451.352295 668.954224,467.453705 
	C664.177307,470.671295 661.722412,474.854431 662.051331,480.446014 
	C662.513550,488.305054 663.459351,496.134857 663.969360,503.992035 
	C665.057617,520.757751 666.621582,537.524780 666.845642,554.306519 
	C667.140381,576.387024 666.721069,598.497620 665.848450,620.565186 
	C665.365417,632.779480 663.964417,645.044678 661.828979,657.083252 
	C659.402710,670.761475 655.463684,684.049194 647.103394,695.669006 
	C636.350403,710.614441 619.025269,714.772034 605.737671,700.006287 
	C599.581238,693.165039 593.857910,685.631653 589.442017,677.586609 
	C578.843201,658.277649 572.008606,637.387024 566.012207,616.249207 
	C565.023376,612.763428 562.763367,610.784302 559.621948,612.240845 
	C557.868408,613.053955 556.008179,616.277283 556.208984,618.204773 
	C557.048279,626.261780 558.779785,634.220581 559.946655,642.249878 
	C562.931274,662.787598 567.552124,682.903137 574.988892,702.319946 
	C582.409058,721.693176 592.015137,739.636353 609.004333,752.461243 
	C627.913025,766.734924 649.149902,771.479370 672.229431,766.261414 
	C694.620422,761.198975 710.451355,746.439819 723.920471,728.948059 
	C733.912720,715.971558 742.262573,701.879517 748.079285,686.498657 
	C753.945374,670.987488 760.335388,655.576660 764.757568,639.639526 
	C771.831848,614.144470 776.951599,588.149475 778.979675,561.677368 
	C780.449219,542.495972 782.002380,523.310730 782.884460,504.098053 
	C783.487671,490.960205 783.000000,477.772247 783.000061,463.634369 
M666.000000,205.521591 
	C666.669861,202.190750 667.128418,198.800446 668.046448,195.539459 
	C671.853394,182.015488 676.425964,168.960846 687.331543,159.066116 
	C696.433838,150.807526 709.845215,150.359909 718.999268,158.443146 
	C727.472778,165.925476 733.795471,175.033447 738.944153,184.940399 
	C748.946167,204.186417 756.256531,224.490768 762.041992,245.370331 
	C762.841064,248.254257 764.925232,250.850082 767.993591,249.759140 
	C769.765320,249.129211 771.508057,246.235580 771.802185,244.154236 
	C772.222168,241.182587 771.488098,237.987076 770.922913,234.947388 
	C768.346436,221.090378 765.803040,207.224426 762.974792,193.417603 
	C758.075623,169.501205 750.533936,146.469040 735.817261,126.693275 
	C718.525391,103.457047 695.510681,91.593063 665.842041,93.906853 
	C649.432617,95.186577 635.564697,102.054802 623.385437,112.310310 
	C608.447754,124.888618 597.245178,140.647156 588.049438,157.796448 
	C577.247375,177.941483 569.616821,199.369003 563.423096,221.286972 
	C560.130859,232.936966 557.250977,244.759537 555.142395,256.673615 
	C552.561829,271.254639 550.693115,285.980682 549.053284,300.703827 
	C547.365723,315.855103 545.555542,331.058350 545.159302,346.274292 
	C544.322815,378.400543 544.916382,410.533295 548.005554,442.566589 
	C548.528870,447.993225 551.145325,452.663452 555.920593,454.731537 
	C561.558594,457.173279 567.701660,457.089264 573.208740,453.286255 
	C587.868774,443.162537 602.542053,433.057892 617.230957,422.976074 
	C631.254761,413.350739 645.329102,403.798645 659.329224,394.139008 
	C663.672668,391.142151 666.428772,387.122101 665.988586,381.550934 
	C665.368347,373.701080 664.494629,365.867615 664.038696,358.009186 
	C662.930786,338.912445 661.245605,319.807678 661.185364,300.701782 
	C661.104431,275.028015 662.182251,249.344604 663.116150,223.678207 
	C663.326660,217.892136 664.996094,212.159134 666.000000,205.521591 
M540.544922,563.000000 
	C559.205444,563.000000 577.866455,563.072327 596.526184,562.953735 
	C601.783142,562.920349 607.046143,562.432434 612.288208,561.953979 
	C615.789673,561.634338 617.306824,559.686707 617.084473,555.958130 
	C616.869568,552.355164 615.312378,551.025940 611.839783,550.945007 
	C608.244812,550.861145 604.663757,550.289490 601.070374,550.012512 
	C587.807617,548.990295 574.520569,548.223450 561.284912,546.928772 
	C551.076721,545.930237 540.728455,545.130676 530.803223,542.742798 
	C512.802307,538.412170 494.771515,533.821228 477.312073,527.735596 
	C460.738678,521.958679 445.057953,513.779663 433.913605,499.343231 
	C426.172546,489.315399 422.874725,476.788361 428.934479,464.251495 
	C433.498596,454.808929 440.532837,447.465271 449.216644,442.118896 
	C461.038605,434.840485 473.379425,428.388092 485.634613,421.837524 
	C491.309814,418.803986 494.831116,415.205872 494.124969,408.053162 
	C493.265778,399.350342 493.008942,390.553925 493.064575,381.801666 
	C493.198700,360.716553 493.643860,339.633087 494.035461,318.550323 
	C494.074432,316.453278 494.496948,314.342010 494.932587,312.277679 
	C496.324768,305.680847 494.550812,299.920380 490.308899,299.265930 
	C486.954865,298.748474 483.202484,298.654205 480.004456,299.620880 
	C450.478943,308.545715 422.673370,321.417236 396.803894,338.131561 
	C371.644653,354.386993 347.497650,372.036011 329.725372,396.803833 
	C315.789795,416.224701 308.211761,437.321045 311.899292,461.767487 
	C315.297058,484.293091 326.681305,501.937653 344.241241,515.506104 
	C364.887909,531.459656 389.052063,540.222595 413.981842,546.996643 
	C438.502258,553.659546 463.611847,557.114685 488.778778,559.838623 
	C505.622925,561.661621 522.627991,561.998230 540.544922,563.000000 
M999.495544,361.997253 
	C998.408264,360.576691 997.419617,359.066071 996.218018,357.749786 
	C986.745239,347.371765 975.417847,339.346832 962.978638,333.087219 
	C943.300232,323.184692 922.683167,315.739655 900.890259,311.983429 
	C880.895691,308.537140 860.923157,304.862549 840.823425,302.162384 
	C827.169189,300.328125 813.317444,299.252930 799.544922,299.158936 
	C771.474243,298.967407 743.397339,299.656677 715.323364,300.015289 
	C711.485474,300.064270 710.934143,302.642090 710.961304,305.802399 
	C710.988037,308.918213 711.957214,310.872528 715.425110,311.019684 
	C721.516785,311.278229 727.609558,311.575226 733.689941,312.018829 
	C746.623779,312.962463 759.647888,313.334473 772.454346,315.188293 
	C788.144470,317.459564 803.756958,320.542847 819.209290,324.113495 
	C841.308533,329.220215 862.509277,336.828522 881.275513,350.047913 
	C889.429077,355.791443 896.309875,362.847534 899.891113,372.250671 
	C905.376587,386.653656 901.038635,399.251404 890.663025,409.680695 
	C877.538452,422.873077 861.354675,431.621399 844.438904,438.912720 
	C836.638184,442.275208 833.872437,445.323364 834.039612,453.879242 
	C834.178223,460.971161 834.897095,468.054535 834.950989,475.144775 
	C835.087891,493.136414 835.204041,511.133270 834.905518,529.121033 
	C834.761353,537.806763 833.481812,546.467957 833.065186,555.156982 
	C832.792480,560.846497 835.082520,563.335876 840.582092,562.874573 
	C845.855835,562.432190 851.284241,561.617737 856.226562,559.818237 
	C879.759827,551.249512 902.552002,541.082275 924.048706,528.056091 
	C950.240540,512.184937 974.535645,494.041351 994.114929,470.285126 
	C1010.901184,449.917847 1020.107788,427.002808 1016.059021,399.942383 
	C1013.971680,385.991608 1008.446777,373.668396 999.495544,361.997253 
M1136.048462,1329.759155 
	C1134.870361,1333.909790 1133.692383,1338.060425 1132.514404,1342.211060 
	C1132.139893,1342.123535 1131.765503,1342.036133 1131.391113,1341.948730 
	C1127.731201,1329.333374 1124.071411,1316.717896 1120.491821,1304.379028 
	C1113.525513,1304.379028 1106.796265,1304.379028 1100.377197,1304.379028 
	C1100.377197,1323.812012 1100.377197,1342.864990 1100.377197,1361.784180 
	C1104.371704,1361.784180 1107.987671,1361.784180 1111.978760,1361.784180 
	C1111.978760,1347.244385 1111.978760,1332.913452 1111.978760,1318.582520 
	C1116.726440,1331.830933 1120.835327,1345.153076 1125.038574,1358.445312 
	C1125.440186,1359.715088 1126.167603,1361.445190 1127.190796,1361.860229 
	C1132.379761,1363.964844 1137.334229,1361.420410 1139.022461,1356.107178 
	C1139.363037,1355.035278 1139.660889,1353.949463 1140.003418,1352.878174 
	C1143.783691,1341.053589 1147.568726,1329.230713 1151.352539,1317.407349 
	C1151.657104,1317.466797 1151.961792,1317.526367 1152.266357,1317.585938 
	C1152.266357,1332.328613 1152.266357,1347.071167 1152.266357,1361.662231 
	C1156.710693,1361.662231 1160.775269,1361.662231 1164.663574,1361.662231 
	C1164.663574,1342.270386 1164.663574,1323.217773 1164.663574,1304.136963 
	C1157.695190,1304.136963 1151.063965,1304.136963 1144.463013,1304.136963 
	C1141.764526,1312.526001 1139.108643,1320.782471 1136.048462,1329.759155 
M516.000000,1316.488770 
	C516.000000,1319.922729 516.000000,1323.356689 516.000000,1326.679688 
	C508.989349,1326.679688 502.589844,1326.679688 495.767151,1326.679688 
	C495.767151,1318.958740 495.767151,1311.551392 495.767151,1304.354248 
	C491.258972,1304.354248 487.192780,1304.354248 483.359009,1304.354248 
	C483.359009,1323.769897 483.359009,1342.829834 483.359009,1361.620728 
	C487.794281,1361.620728 491.859314,1361.620728 496.171814,1361.620728 
	C496.171814,1353.295654 496.171814,1345.348999 496.171814,1337.233643 
	C503.164886,1337.233643 509.894623,1337.233643 517.059814,1337.233643 
	C517.059814,1345.527466 517.059814,1353.599854 517.059814,1361.733887 
	C521.565979,1361.733887 525.630493,1361.733887 529.727051,1361.733887 
	C529.727051,1342.408325 529.727051,1323.350220 529.727051,1304.291260 
	C525.049988,1304.291260 520.651672,1304.291260 516.000000,1304.291260 
	C516.000000,1308.218384 516.000000,1311.859253 516.000000,1316.488770 
M994.442078,1334.071899 
	C989.567749,1332.047241 984.734314,1329.915405 979.804382,1328.036865 
	C976.668152,1326.841553 973.248901,1326.332275 970.206909,1324.960083 
	C965.929565,1323.031128 965.141724,1319.515869 968.048584,1316.010498 
	C971.040588,1312.402466 980.252625,1310.820801 982.815979,1317.295044 
	C983.401245,1318.773315 985.057800,1320.621948 986.443359,1320.831421 
	C989.834351,1321.344116 993.354980,1320.998779 996.876770,1320.998779 
	C995.573547,1311.983154 994.153748,1308.975708 988.223450,1305.876831 
	C981.136230,1302.173462 973.568542,1302.319824 965.982422,1304.490967 
	C956.937256,1307.079712 953.813049,1312.077881 953.091370,1318.404541 
	C952.035583,1327.659790 954.367310,1331.679443 963.404297,1335.629883 
	C968.812805,1337.994507 974.808716,1338.989258 980.322632,1341.154785 
	C981.933533,1341.787476 983.634094,1344.233887 983.835083,1346.013550 
	C984.342590,1350.507690 981.409851,1352.706909 974.749084,1353.684570 
	C971.376282,1354.179688 965.291443,1351.110718 965.202698,1348.149414 
	C965.052734,1343.143555 962.393555,1342.629272 958.471130,1342.961914 
	C956.046570,1343.167603 953.590332,1343.000000 951.184998,1343.000000 
	C950.677368,1353.651001 954.231628,1359.412598 963.786011,1361.844727 
	C968.777649,1363.115479 974.270264,1363.351685 979.425415,1362.868774 
	C993.807434,1361.521362 1003.804016,1347.755859 994.442078,1334.071899 
M414.831879,1364.004761 
	C411.955139,1366.409302 412.892761,1371.361328 417.065247,1373.967896 
	C425.942474,1379.513794 435.290131,1378.750977 444.304169,1374.671875 
	C446.759949,1373.560547 449.149139,1370.279297 449.770905,1367.579834 
	C450.894745,1362.700562 450.881439,1357.512451 450.954742,1352.447754 
	C451.105438,1342.035767 451.000000,1331.620117 451.000000,1320.395996 
	C446.471924,1322.534424 440.820679,1317.723267 438.449829,1324.577759 
	C432.888489,1319.973511 423.965149,1319.724976 418.626495,1323.893677 
	C410.901520,1329.925659 408.411713,1342.538574 413.408630,1351.360962 
	C415.630981,1355.284668 419.902710,1359.187866 424.074738,1360.542358 
	C428.141724,1361.862671 433.268433,1359.918823 438.001465,1359.400146 
	C437.920532,1358.956177 437.965881,1359.118286 437.977722,1359.282715 
	C438.243622,1362.971924 438.632385,1367.222290 434.461029,1368.631348 
	C430.781219,1369.874390 426.562775,1369.798828 424.783051,1364.746582 
	C424.611176,1364.258545 423.120514,1364.074097 422.228851,1364.032837 
	C420.071228,1363.932617 417.905823,1364.000244 414.831879,1364.004761 
M1053.000610,1306.695557 
	C1053.000610,1325.097656 1053.000610,1343.499634 1053.000610,1361.796143 
	C1066.682495,1361.796143 1079.628174,1361.796143 1092.780884,1361.796143 
	C1092.780884,1358.527344 1092.780884,1355.463013 1092.780884,1351.961670 
	C1083.833496,1351.961670 1075.093140,1351.961670 1066.255981,1351.961670 
	C1066.255981,1346.789917 1066.255981,1342.058594 1066.255981,1336.896484 
	C1074.244507,1336.896484 1081.984131,1336.896484 1089.710571,1336.896484 
	C1089.710571,1333.387085 1089.710571,1330.320190 1089.710571,1326.828613 
	C1081.688721,1326.828613 1073.948486,1326.828613 1066.324951,1326.828613 
	C1066.324951,1322.317749 1066.324951,1318.252075 1066.324951,1313.763428 
	C1075.053711,1313.763428 1083.463013,1313.763428 1091.640381,1313.763428 
	C1091.640381,1310.250000 1091.640381,1307.185181 1091.640381,1304.000244 
	C1079.629028,1304.000244 1067.976318,1303.953491 1056.325317,1304.075684 
	C1055.213989,1304.087402 1054.113525,1305.155029 1053.000610,1306.695557 
M294.025848,1332.960449 
	C293.683929,1337.522339 293.089722,1342.082520 293.059143,1346.646484 
	C293.013184,1353.510254 297.481903,1359.622925 303.808716,1361.919922 
	C310.115479,1364.209473 315.890411,1363.032593 320.727600,1359.204468 
	C324.664337,1364.433960 329.606812,1360.863892 333.657318,1362.032959 
	C333.657318,1342.226685 333.657318,1323.185303 333.657318,1304.356689 
	C329.246490,1304.356689 325.183838,1304.356689 320.928040,1304.356689 
	C320.928040,1310.969360 320.928040,1317.227539 320.928040,1323.557373 
	C307.188965,1318.473389 300.264893,1320.756348 294.025848,1332.960449 
M622.074524,1362.034546 
	C628.203430,1362.784180 633.166626,1361.176270 636.843933,1355.759399 
	C640.334717,1350.617310 641.027832,1345.040283 641.056335,1339.075562 
	C641.090454,1331.932983 638.417725,1325.543213 632.477539,1322.510864 
	C626.574402,1319.497192 619.474487,1319.534424 613.443909,1324.035767 
	C613.082031,1324.305786 612.602600,1324.418457 612.141418,1324.620117 
	C612.005981,1323.395020 611.883667,1322.288696 611.772949,1321.287109 
	C607.754333,1321.287109 604.004456,1321.287109 600.265991,1321.287109 
	C600.265991,1339.948730 600.265991,1358.321777 600.265991,1376.722412 
	C604.598938,1376.722412 608.660278,1376.722412 613.152405,1376.722412 
	C613.152405,1370.806152 613.152405,1365.154297 613.152405,1360.193359 
	C616.056763,1360.842651 618.652954,1361.423096 622.074524,1362.034546 
M655.422607,1334.000000 
	C657.076233,1334.000000 658.729797,1334.000000 660.724854,1334.000000 
	C661.032715,1330.682617 661.678345,1327.275879 665.997742,1328.104858 
	C670.187561,1328.909180 670.670898,1332.006226 669.707092,1335.521484 
	C665.280273,1336.022095 660.866516,1336.246948 656.568726,1337.074463 
	C650.739929,1338.196655 645.147583,1346.392700 646.547241,1353.238403 
	C648.859680,1364.548706 663.674011,1365.649536 670.081543,1359.442871 
	C670.520264,1359.017822 671.034607,1358.670898 671.779724,1358.074951 
	C671.957520,1359.573486 672.086426,1360.660034 672.221558,1361.798828 
	C676.104126,1361.798828 679.892883,1361.798828 683.520508,1361.798828 
	C683.007202,1351.756470 682.329224,1341.908936 682.078308,1332.050659 
	C681.964172,1327.565063 680.360474,1324.114258 676.226074,1322.855835 
	C671.496399,1321.416504 666.414062,1319.911133 661.602356,1320.226318 
	C652.141113,1320.846069 647.627563,1326.152710 648.576294,1334.000000 
	C650.524780,1334.000000 652.509277,1334.000000 655.422607,1334.000000 
M694.672668,1361.999390 
	C698.081665,1361.999390 701.490662,1361.999390 705.001343,1361.999390 
	C705.001343,1352.957764 704.887329,1344.642456 705.050598,1336.332642 
	C705.129578,1332.311890 707.467773,1329.985474 711.586548,1330.036011 
	C715.595642,1330.085083 717.237671,1332.077515 717.088135,1336.308594 
	C716.790405,1344.734863 717.000000,1353.179199 717.000000,1361.762695 
	C721.512695,1361.762695 725.573486,1361.762695 729.998535,1361.762695 
	C729.998535,1351.419312 730.168213,1341.304932 729.927002,1331.200317 
	C729.806213,1326.138916 726.605408,1322.804565 722.023315,1321.065063 
	C715.515137,1318.594116 709.699646,1320.427734 704.239624,1324.968506 
	C704.022217,1323.382446 703.864136,1322.229370 703.746521,1321.371460 
	C699.553101,1321.371460 695.823853,1321.371460 692.000244,1321.371460 
	C692.000244,1334.049805 691.956238,1346.357178 692.074829,1358.663208 
	C692.085632,1359.777710 693.142883,1360.882324 694.672668,1361.999390 
M207.343842,1333.148193 
	C206.895950,1337.028198 205.880188,1340.943359 206.118546,1344.780762 
	C206.612518,1352.732788 209.092453,1360.099854 217.899170,1362.211670 
	C224.199066,1363.722290 230.966934,1364.552856 236.978806,1360.933960 
	C241.202087,1358.391602 244.400314,1354.838135 243.803101,1349.000366 
	C242.603760,1349.000366 241.783310,1348.964233 240.966919,1349.006470 
	C236.854431,1349.219238 232.170380,1347.414795 229.835770,1353.258057 
	C229.434235,1354.262939 224.523438,1354.829224 223.075165,1353.748901 
	C220.609177,1351.909180 219.237991,1348.601929 216.660934,1344.815186 
	C227.280380,1344.815186 236.029510,1344.815186 245.830978,1344.815186 
	C244.852600,1340.018066 244.344009,1335.682373 243.055344,1331.592285 
	C240.433517,1323.270752 234.613342,1319.807373 224.560165,1320.000000 
	C216.835114,1320.147827 210.059769,1325.253174 207.343842,1333.148193 
M276.099792,1361.975708 
	C279.701050,1361.975708 283.302338,1361.975708 286.559448,1361.975708 
	C286.355927,1357.502441 286.091644,1353.592163 286.021637,1349.678345 
	C285.932343,1344.685547 286.380432,1339.650024 285.863770,1334.709717 
	C285.529510,1331.513306 284.718872,1327.672729 282.668518,1325.479370 
	C276.389526,1318.762939 268.282471,1318.875244 260.109955,1321.429077 
	C253.919617,1323.363525 251.750122,1326.959106 252.284378,1333.780518 
	C256.041595,1333.780518 259.819794,1333.780518 263.682159,1333.780518 
	C264.293121,1330.509155 265.607117,1327.393311 269.473145,1328.138550 
	C273.261322,1328.868896 274.146118,1332.105835 273.825043,1336.004395 
	C264.001404,1335.708496 254.120773,1335.519775 250.130432,1346.984863 
	C248.539139,1351.556885 251.157303,1358.669678 254.484009,1360.806641 
	C260.238098,1364.503052 267.906433,1363.626709 274.779327,1358.411621 
	C274.954742,1359.560669 275.120758,1360.648071 276.099792,1361.975708 
M890.475342,1362.000000 
	C892.237793,1362.000000 894.000183,1362.000000 895.468872,1362.000000 
	C896.001404,1353.009888 896.598572,1344.638062 896.953979,1336.255981 
	C897.151917,1331.589966 899.546021,1329.733643 903.930054,1330.016846 
	C908.615417,1330.319458 909.062500,1333.579468 909.025024,1337.317993 
	C908.943787,1345.426636 909.000000,1353.536743 909.000000,1361.743286 
	C913.546326,1361.743286 917.610779,1361.743286 921.998230,1361.743286 
	C921.998230,1351.696533 922.312500,1341.890259 921.902954,1332.114258 
	C921.548401,1323.650391 913.300049,1318.060669 905.188354,1320.407959 
	C902.034058,1321.320801 899.071289,1322.895508 896.098022,1324.136841 
	C896.012817,1323.390991 895.886780,1322.287354 895.772583,1321.287842 
	C891.764343,1321.287842 888.008728,1321.287842 884.297852,1321.287842 
	C884.297852,1334.973267 884.297852,1348.368896 884.297852,1362.000000 
	C886.237610,1362.000000 887.881226,1362.000000 890.475342,1362.000000 
M378.519165,1323.984985 
	C377.690277,1323.047607 376.861389,1322.110229 376.102203,1321.251709 
	C372.525085,1321.251709 368.927338,1321.251709 365.246826,1321.251709 
	C365.246826,1334.888306 365.246826,1348.271729 365.246826,1361.740601 
	C369.559052,1361.740601 373.620239,1361.740601 378.000031,1361.740601 
	C378.000031,1353.532471 377.776886,1345.569336 378.141785,1337.633301 
	C378.245575,1335.376953 379.468903,1332.337769 381.202118,1331.146973 
	C386.418762,1327.562744 390.851929,1330.815552 390.970642,1338.109985 
	C391.099365,1346.020264 390.999847,1353.934204 390.999847,1361.653564 
	C395.396912,1361.653564 399.127106,1361.653564 403.000000,1361.653564 
	C403.000000,1351.669556 402.633270,1342.011475 403.150452,1332.401001 
	C403.420166,1327.388916 399.117737,1322.737549 395.239410,1321.095093 
	C389.380280,1318.613525 384.174896,1320.673462 378.519165,1323.984985 
M1033.655518,1315.000000 
	C1038.068970,1315.000000 1042.482544,1315.000000 1046.631836,1315.000000 
	C1046.631836,1310.895386 1046.631836,1307.498535 1046.631836,1304.348999 
	C1030.881226,1304.348999 1015.500183,1304.348999 1000.365845,1304.348999 
	C1000.365845,1308.104980 1000.365845,1311.499756 1000.365845,1315.313110 
	C1006.130188,1315.313110 1011.533142,1315.313110 1017.309326,1315.313110 
	C1017.309326,1331.127930 1017.309326,1346.510498 1017.309326,1361.627808 
	C1021.785461,1361.627808 1025.848389,1361.627808 1030.000000,1361.627808 
	C1030.000000,1347.122559 1029.991211,1332.989258 1030.010742,1318.855957 
	C1030.013306,1317.000732 1029.280273,1314.531128 1033.655518,1315.000000 
M587.414307,1333.000000 
	C589.075623,1333.000000 590.736938,1333.000000 592.403564,1333.000000 
	C592.145569,1326.594482 588.997559,1322.142578 582.907166,1321.215698 
	C578.304199,1320.515381 573.388611,1321.160278 568.707458,1321.851807 
	C561.963440,1322.848022 559.392639,1327.879028 559.017212,1332.414185 
	C558.549316,1338.065430 560.664307,1341.287720 567.239685,1343.965820 
	C570.935486,1345.471191 575.000732,1346.051880 578.755676,1347.438843 
	C580.040588,1347.913452 581.504028,1349.466309 581.726196,1350.730347 
	C581.885071,1351.634277 580.307007,1353.186523 579.163330,1353.913696 
	C575.303650,1356.367554 572.462158,1354.899780 569.588135,1349.198853 
	C565.805420,1349.198853 562.011719,1349.198853 558.219727,1349.198853 
	C558.259460,1356.252441 560.449829,1359.961182 566.787842,1361.810181 
	C573.799072,1363.855713 580.854614,1364.110229 587.587585,1360.116333 
	C592.578308,1357.156250 594.454956,1352.841675 593.956848,1347.380005 
	C593.500732,1342.379517 590.065063,1339.608154 585.700134,1338.068726 
	C582.077820,1336.791138 578.178223,1336.269653 574.614136,1334.871338 
	C573.136780,1334.291870 572.213196,1332.300781 571.037781,1330.951660 
	C572.785400,1329.986206 574.446594,1328.667969 576.318359,1328.209229 
	C577.208740,1327.990967 578.990112,1329.147827 579.519043,1330.136108 
	C581.148499,1333.180786 583.691223,1333.301025 587.414307,1333.000000 
M201.228683,1351.080078 
	C193.621735,1351.080078 186.014801,1351.080078 177.998672,1351.080078 
	C177.998672,1335.191040 177.998672,1319.804810 177.998672,1304.221191 
	C173.521271,1304.221191 169.460236,1304.221191 165.209503,1304.221191 
	C165.209503,1323.486816 165.209503,1342.530884 165.209503,1361.787476 
	C177.472366,1361.787476 189.525818,1361.787476 201.913635,1361.787476 
	C201.913635,1358.312622 201.913635,1355.029907 201.228683,1351.080078 
M832.966919,1344.871948 
	C830.661133,1342.757324 828.653137,1340.073730 825.974426,1338.671631 
	C822.610291,1336.910767 818.652283,1336.319214 815.041565,1334.977783 
	C813.573364,1334.432251 812.105774,1333.429810 811.158691,1332.225586 
	C810.888550,1331.882080 812.241821,1329.423462 813.210999,1329.131592 
	C814.833923,1328.643066 817.871765,1328.458984 818.356934,1329.289917 
	C821.884827,1335.330078 827.188538,1332.354370 831.820007,1332.938599 
	C832.560730,1327.671387 830.153320,1324.821533 826.204346,1322.614746 
	C820.713440,1319.546021 814.965576,1320.141235 809.211975,1321.063354 
	C804.320496,1321.847290 799.252502,1327.310181 799.000488,1331.637573 
	C798.562622,1339.156494 800.427185,1341.871460 807.642456,1344.219971 
	C811.147583,1345.360718 814.713562,1346.349731 818.127869,1347.717163 
	C819.504395,1348.268433 820.549072,1349.648315 821.744751,1350.651001 
	C820.437988,1351.988892 819.095032,1354.463135 817.832031,1354.423096 
	C815.357544,1354.344482 811.429199,1353.455078 810.792358,1351.840454 
	C809.483337,1348.521484 807.431885,1349.027588 805.124878,1349.005005 
	C802.824768,1348.982422 800.524231,1349.000000 798.052185,1349.000000 
	C797.822083,1354.622437 799.805969,1358.390747 804.539307,1360.891479 
	C811.315125,1364.471191 818.248352,1363.567261 824.953369,1361.402954 
	C831.494995,1359.291504 835.587036,1351.724854 832.966919,1344.871948 
M773.103516,1321.022827 
	C765.446533,1323.420654 761.166504,1328.139038 759.654297,1336.489014 
	C757.253296,1349.747803 762.964539,1364.817871 781.185364,1363.065796 
	C789.493042,1362.266846 795.413147,1355.755493 794.615723,1347.000000 
	C793.513245,1347.000000 792.374390,1346.974243 791.237061,1347.004517 
	C786.892395,1347.120361 782.122437,1345.505615 780.615112,1352.397217 
	C779.954834,1355.416016 776.352051,1354.533203 774.735474,1352.128784 
	C771.180664,1346.841309 771.189453,1335.942627 774.808411,1330.771729 
	C776.946045,1327.717285 779.291016,1328.814575 780.991394,1331.314087 
	C781.838928,1332.559937 782.025757,1334.255127 782.519531,1335.771973 
	C786.626465,1335.771973 790.737244,1335.771973 796.484131,1335.771973 
	C794.203186,1331.644897 792.784973,1328.052368 790.492004,1325.151367 
	C786.200134,1319.721436 779.830994,1321.075806 773.103516,1321.022827 
M356.000000,1334.508179 
	C356.000000,1330.081665 356.000000,1325.655273 356.000000,1321.307373 
	C351.342316,1321.307373 347.281403,1321.307373 343.295593,1321.307373 
	C343.295593,1334.997314 343.295593,1348.377808 343.295593,1361.692383 
	C347.660156,1361.692383 351.721558,1361.692383 356.000000,1361.692383 
	C356.000000,1352.759399 356.000000,1344.132080 356.000000,1334.508179 
M551.241211,1361.914795 
	C551.241211,1348.416382 551.241211,1334.917969 551.241211,1321.225098 
	C547.512207,1321.225098 543.451721,1321.225098 539.219971,1321.225098 
	C539.219971,1334.833740 539.219971,1348.216797 539.219971,1361.991455 
	C543.046753,1361.991455 546.666077,1361.991455 551.241211,1361.914795 
M752.000000,1355.417480 
	C752.000000,1344.010864 752.000000,1332.604370 752.000000,1321.326660 
	C747.637634,1321.326660 743.908447,1321.326660 740.316223,1321.326660 
	C740.316223,1335.039062 740.316223,1348.422607 740.316223,1361.668579 
	C744.367493,1361.668579 748.096313,1361.668579 752.000000,1361.668579 
	C752.000000,1359.689453 752.000000,1358.040771 752.000000,1355.417480 
M873.264038,1321.088257 
	C869.648010,1321.088257 866.031982,1321.088257 862.379028,1321.088257 
	C862.379028,1334.916016 862.379028,1348.415894 862.379028,1361.785767 
	C866.372925,1361.785767 869.986572,1361.785767 873.920288,1361.785767 
	C873.920288,1348.311157 873.920288,1335.047241 873.264038,1321.088257 
M1186.775879,1361.732666 
	C1187.489990,1361.354736 1188.200439,1360.969360 1188.918945,1360.599976 
	C1193.338745,1358.327393 1194.621216,1354.304077 1193.842773,1349.931030 
	C1193.098633,1345.751343 1190.626465,1342.475098 1185.836060,1342.008057 
	C1179.283447,1341.368896 1175.898315,1343.019775 1174.118896,1347.651733 
	C1171.027954,1355.697998 1176.294922,1362.052124 1186.775879,1361.732666 
M861.000000,1311.399780 
	C860.825745,1313.538696 860.819519,1315.292480 863.938416,1315.061035 
	C867.517212,1314.795410 871.130859,1314.999390 874.723877,1314.999390 
	C874.723877,1311.062622 874.723877,1307.670532 874.723877,1304.277466 
	C870.050537,1304.277466 865.658875,1304.277466 861.000000,1304.277466 
	C861.000000,1306.518066 861.000000,1308.483887 861.000000,1311.399780 
M739.000000,1309.500000 
	C739.000000,1311.256226 739.000000,1313.012451 739.000000,1314.697998 
	C743.998718,1314.697998 748.389832,1314.697998 752.690369,1314.697998 
	C752.690369,1310.994141 752.690369,1307.600830 752.690369,1304.310303 
	C747.984619,1304.310303 743.593750,1304.310303 739.000000,1304.310303 
	C739.000000,1305.930054 739.000000,1307.240234 739.000000,1309.500000 
M347.584534,1304.000000 
	C346.146820,1304.071167 344.709137,1304.142456 343.276215,1304.213379 
	C343.276215,1307.940063 343.276215,1311.331299 343.276215,1314.722412 
	C347.616150,1314.722412 351.674072,1314.722412 355.717316,1314.722412 
	C355.717316,1311.046631 355.717316,1307.654785 355.717316,1304.000000 
	C353.139557,1304.000000 350.841644,1304.000000 347.584534,1304.000000 
M542.632568,1315.000000 
	C545.711426,1315.000000 548.790344,1315.000000 551.652344,1315.000000 
	C551.652344,1310.916504 551.652344,1307.525391 551.652344,1304.347900 
	C547.240417,1304.347900 543.181458,1304.347900 539.003174,1304.347900 
	C539.003174,1307.343994 538.780762,1310.022339 539.125916,1312.625244 
	C539.243774,1313.513916 540.787109,1314.213379 542.632568,1315.000000 
z"/>
<path fill="#1A2857" opacity="1.000000" stroke="none" 
	d="
M613.000000,890.000000 
	C629.473267,890.000000 645.446533,890.000000 661.709229,890.000000 
	C661.709229,1008.650696 661.709229,1127.039551 661.709229,1245.714355 
	C636.998169,1245.714355 612.267151,1245.714355 587.098694,1245.714355 
	C587.098694,1193.297363 587.098694,1140.901001 587.098694,1088.253174 
	C558.932617,1088.253174 531.202087,1088.253174 503.034637,1088.253174 
	C503.034637,1140.766968 503.034637,1193.163452 503.034637,1245.778809 
	C477.654144,1245.778809 452.707916,1245.778809 427.380646,1245.778809 
	C427.380646,1127.525513 427.380646,1009.137451 427.380646,890.374634 
	C452.154358,890.374634 477.220093,890.374634 502.723969,890.374634 
	C502.723969,937.190308 502.723969,984.254089 502.723969,1031.658447 
	C530.888428,1031.658447 558.619812,1031.658447 586.789368,1031.658447 
	C586.789368,984.743774 586.789368,937.679932 586.789368,890.000000 
	C595.641174,890.000000 604.070618,890.000000 613.000000,890.000000 
z"/>
<path fill="#1A2857" opacity="1.000000" stroke="none" 
	d="
M291.178131,941.649536 
	C274.505005,935.364319 250.039261,939.047119 242.336670,958.370544 
	C236.271515,973.586182 237.766388,988.689636 248.831375,1002.297974 
	C258.562714,1014.266113 271.564392,1021.940857 284.768372,1029.356689 
	C301.674438,1038.852051 318.950287,1047.789917 335.240173,1058.254761 
	C353.987549,1070.298218 370.094604,1085.385864 379.602814,1106.201172 
	C384.772614,1117.518677 387.628876,1129.463379 387.990326,1141.938110 
	C388.505310,1159.711060 387.289764,1177.193115 381.098358,1194.163696 
	C372.850952,1216.770020 357.307892,1232.018433 335.336517,1240.967285 
	C318.903107,1247.660400 301.694885,1250.713501 283.959381,1251.029785 
	C274.699493,1251.195068 265.410278,1252.336914 256.195465,1251.859009 
	C237.672226,1250.898071 219.359756,1248.483643 202.377716,1240.075317 
	C185.104980,1231.523071 173.203384,1218.190186 165.976456,1200.427490 
	C157.462173,1179.500732 157.536926,1157.591187 158.160919,1135.292969 
	C183.321304,1135.292969 208.386780,1135.292969 234.000000,1135.292969 
	C234.000000,1142.059937 233.625946,1148.857300 234.091156,1155.596436 
	C234.726074,1164.794189 236.144669,1173.841431 240.946655,1182.093750 
	C246.132004,1191.005005 254.206848,1195.241577 263.822906,1196.925171 
	C271.732117,1198.309814 279.609314,1198.428955 287.581451,1196.111694 
	C300.408295,1192.383301 308.455780,1182.720337 310.903778,1170.010498 
	C312.576324,1161.326660 312.770691,1152.706299 309.196533,1144.046143 
	C305.487701,1135.059570 299.892059,1127.372559 292.229614,1122.269165 
	C270.307251,1107.668335 247.593445,1094.261597 225.471069,1079.952148 
	C216.220688,1073.968750 207.639297,1066.942627 198.822815,1060.299072 
	C188.195068,1052.290405 180.531372,1041.733154 173.970718,1030.376343 
	C168.594543,1021.070068 165.207855,1010.921875 164.098785,1000.236145 
	C163.264862,992.201355 162.772049,984.049316 163.110275,975.990784 
	C163.962036,955.696167 168.614456,936.353577 181.535126,920.126892 
	C192.523987,906.326233 207.027313,897.019104 223.931412,892.205017 
	C234.163773,889.291016 244.785736,887.143188 255.369766,886.215210 
	C269.214539,885.001587 283.246124,884.428284 297.104614,885.214355 
	C317.362549,886.363403 336.987457,891.102783 353.676086,903.413330 
	C368.670227,914.473877 377.778687,929.848633 380.815582,948.110046 
	C383.178467,962.318359 383.847900,976.808350 385.317688,991.655396 
	C359.784637,991.655396 335.719391,991.655396 311.363342,991.655396 
	C310.587494,984.394592 310.154694,976.902161 308.916107,969.545410 
	C306.974060,958.010010 302.928925,947.556213 291.178131,941.649536 
z"/>
<path fill="#1A2857" opacity="1.000000" stroke="none" 
	d="
M711.000000,1225.000000 
	C711.000000,1113.216064 711.000000,1001.932007 711.000000,890.261658 
	C712.598633,890.167847 714.028931,890.010925 715.459229,890.010498 
	C758.446289,889.997498 801.436279,889.714050 844.419006,890.145447 
	C860.842529,890.310303 877.330017,892.114197 892.474548,899.275879 
	C906.174866,905.754578 917.402588,915.318604 924.951721,928.717590 
	C933.864563,944.536926 938.250366,961.633606 938.995178,979.710876 
	C939.369568,988.796509 940.415588,997.932068 939.850769,1006.963257 
	C938.501465,1028.534546 934.165222,1049.285278 921.245789,1067.481079 
	C912.443970,1079.877563 900.704529,1088.261475 886.961914,1093.860474 
	C875.959534,1098.343140 864.362671,1100.954590 852.362671,1100.984497 
	C830.460571,1101.039062 808.558105,1101.000000 786.227234,1101.000000 
	C786.227234,1149.909180 786.227234,1197.633667 786.227234,1245.678467 
	C761.073975,1245.678467 736.345520,1245.678467 711.000000,1245.678467 
	C711.000000,1239.026367 711.000000,1232.263184 711.000000,1225.000000 
M818.493042,1046.000122 
	C823.417480,1045.753906 828.513062,1046.236328 833.234802,1045.127075 
	C848.433289,1041.556763 856.334045,1030.210571 860.882141,1016.455078 
	C866.524292,999.390625 864.628601,982.377991 857.914978,965.953369 
	C854.160034,956.767212 847.041504,950.750061 837.473999,948.086121 
	C833.292969,946.921997 828.868408,946.179382 824.537354,946.091919 
	C811.781738,945.834229 799.017578,946.000000 786.292603,946.000000 
	C786.292603,979.632751 786.292603,1012.686951 786.292603,1046.000000 
	C796.887207,1046.000000 807.191223,1046.000000 818.493042,1046.000122 
z"/>
<path fill="#1A2857" opacity="1.000000" stroke="none" 
	d="
M1162.000000,937.944763 
	C1162.000000,940.750061 1162.000000,943.064087 1162.000000,945.814453 
	C1122.385376,945.814453 1082.987549,945.814453 1043.295776,945.814453 
	C1043.295776,974.647644 1043.295776,1003.044922 1043.295776,1031.881470 
	C1079.681396,1031.881470 1116.079712,1031.881470 1152.737793,1031.881470 
	C1152.737793,1050.716187 1152.737793,1069.114258 1152.737793,1087.951538 
	C1116.248047,1087.951538 1079.849609,1087.951538 1043.227051,1087.951538 
	C1043.227051,1122.119385 1043.227051,1155.849121 1043.227051,1189.839844 
	C1084.033203,1189.839844 1124.645142,1189.839844 1165.628418,1189.839844 
	C1165.628418,1208.492676 1165.628418,1226.892700 1165.628418,1245.647217 
	C1100.135010,1245.647217 1034.408325,1245.647217 968.340820,1245.647217 
	C968.340820,1127.450073 968.340820,1009.061584 968.340820,890.336426 
	C1032.563354,890.336426 1096.957153,890.336426 1162.000000,890.336426 
	C1162.000000,905.942322 1162.000000,921.697937 1162.000000,937.944763 
z"/>
<path fill="#1A2857" opacity="1.000000" stroke="none" 
	d="
M783.000000,464.120544 
	C783.000000,477.772247 783.487671,490.960205 782.884460,504.098053 
	C782.002380,523.310730 780.449219,542.495972 778.979675,561.677368 
	C776.951599,588.149475 771.831848,614.144470 764.757568,639.639526 
	C760.335388,655.576660 753.945374,670.987488 748.079285,686.498657 
	C742.262573,701.879517 733.912720,715.971558 723.920471,728.948059 
	C710.451355,746.439819 694.620422,761.198975 672.229431,766.261414 
	C649.149902,771.479370 627.913025,766.734924 609.004333,752.461243 
	C592.015137,739.636353 582.409058,721.693176 574.988892,702.319946 
	C567.552124,682.903137 562.931274,662.787598 559.946655,642.249878 
	C558.779785,634.220581 557.048279,626.261780 556.208984,618.204773 
	C556.008179,616.277283 557.868408,613.053955 559.621948,612.240845 
	C562.763367,610.784302 565.023376,612.763428 566.012207,616.249207 
	C572.008606,637.387024 578.843201,658.277649 589.442017,677.586609 
	C593.857910,685.631653 599.581238,693.165039 605.737671,700.006287 
	C619.025269,714.772034 636.350403,710.614441 647.103394,695.669006 
	C655.463684,684.049194 659.402710,670.761475 661.828979,657.083252 
	C663.964417,645.044678 665.365417,632.779480 665.848450,620.565186 
	C666.721069,598.497620 667.140381,576.387024 666.845642,554.306519 
	C666.621582,537.524780 665.057617,520.757751 663.969360,503.992035 
	C663.459351,496.134857 662.513550,488.305054 662.051331,480.446014 
	C661.722412,474.854431 664.177307,470.671295 668.954224,467.453705 
	C692.858521,451.352295 716.638123,435.065826 740.483521,418.876862 
	C746.507629,414.787018 752.494812,410.623230 758.707703,406.835815 
	C768.333618,400.967804 779.538757,410.275208 780.017334,419.824341 
	C780.611267,431.673462 781.301331,443.518158 782.025146,455.360138 
	C782.194397,458.127747 782.666992,460.876801 783.000000,464.120544 
z"/>
<path fill="#1A2857" opacity="1.000000" stroke="none" 
	d="
M665.996948,205.961639 
	C664.996094,212.159134 663.326660,217.892136 663.116150,223.678207 
	C662.182251,249.344604 661.104431,275.028015 661.185364,300.701782 
	C661.245605,319.807678 662.930786,338.912445 664.038696,358.009186 
	C664.494629,365.867615 665.368347,373.701080 665.988586,381.550934 
	C666.428772,387.122101 663.672668,391.142151 659.329224,394.139008 
	C645.329102,403.798645 631.254761,413.350739 617.230957,422.976074 
	C602.542053,433.057892 587.868774,443.162537 573.208740,453.286255 
	C567.701660,457.089264 561.558594,457.173279 555.920593,454.731537 
	C551.145325,452.663452 548.528870,447.993225 548.005554,442.566589 
	C544.916382,410.533295 544.322815,378.400543 545.159302,346.274292 
	C545.555542,331.058350 547.365723,315.855103 549.053284,300.703827 
	C550.693115,285.980682 552.561829,271.254639 555.142395,256.673615 
	C557.250977,244.759537 560.130859,232.936966 563.423096,221.286972 
	C569.616821,199.369003 577.247375,177.941483 588.049438,157.796448 
	C597.245178,140.647156 608.447754,124.888618 623.385437,112.310310 
	C635.564697,102.054802 649.432617,95.186577 665.842041,93.906853 
	C695.510681,91.593063 718.525391,103.457047 735.817261,126.693275 
	C750.533936,146.469040 758.075623,169.501205 762.974792,193.417603 
	C765.803040,207.224426 768.346436,221.090378 770.922913,234.947388 
	C771.488098,237.987076 772.222168,241.182587 771.802185,244.154236 
	C771.508057,246.235580 769.765320,249.129211 767.993591,249.759140 
	C764.925232,250.850082 762.841064,248.254257 762.041992,245.370331 
	C756.256531,224.490768 748.946167,204.186417 738.944153,184.940399 
	C733.795471,175.033447 727.472778,165.925476 718.999268,158.443146 
	C709.845215,150.359909 696.433838,150.807526 687.331543,159.066116 
	C676.425964,168.960846 671.853394,182.015488 668.046448,195.539459 
	C667.128418,198.800446 666.669861,202.190750 665.996948,205.961639 
z"/>
<path fill="#1A2857" opacity="1.000000" stroke="none" 
	d="
M540.052979,563.000000 
	C522.627991,561.998230 505.622925,561.661621 488.778778,559.838623 
	C463.611847,557.114685 438.502258,553.659546 413.981842,546.996643 
	C389.052063,540.222595 364.887909,531.459656 344.241241,515.506104 
	C326.681305,501.937653 315.297058,484.293091 311.899292,461.767487 
	C308.211761,437.321045 315.789795,416.224701 329.725372,396.803833 
	C347.497650,372.036011 371.644653,354.386993 396.803894,338.131561 
	C422.673370,321.417236 450.478943,308.545715 480.004456,299.620880 
	C483.202484,298.654205 486.954865,298.748474 490.308899,299.265930 
	C494.550812,299.920380 496.324768,305.680847 494.932587,312.277679 
	C494.496948,314.342010 494.074432,316.453278 494.035461,318.550323 
	C493.643860,339.633087 493.198700,360.716553 493.064575,381.801666 
	C493.008942,390.553925 493.265778,399.350342 494.124969,408.053162 
	C494.831116,415.205872 491.309814,418.803986 485.634613,421.837524 
	C473.379425,428.388092 461.038605,434.840485 449.216644,442.118896 
	C440.532837,447.465271 433.498596,454.808929 428.934479,464.251495 
	C422.874725,476.788361 426.172546,489.315399 433.913605,499.343231 
	C445.057953,513.779663 460.738678,521.958679 477.312073,527.735596 
	C494.771515,533.821228 512.802307,538.412170 530.803223,542.742798 
	C540.728455,545.130676 551.076721,545.930237 561.284912,546.928772 
	C574.520569,548.223450 587.807617,548.990295 601.070374,550.012512 
	C604.663757,550.289490 608.244812,550.861145 611.839783,550.945007 
	C615.312378,551.025940 616.869568,552.355164 617.084473,555.958130 
	C617.306824,559.686707 615.789673,561.634338 612.288208,561.953979 
	C607.046143,562.432434 601.783142,562.920349 596.526184,562.953735 
	C577.866455,563.072327 559.205444,563.000000 540.052979,563.000000 
z"/>
<path fill="#1A2857" opacity="1.000000" stroke="none" 
	d="
M999.753540,362.256958 
	C1008.446777,373.668396 1013.971680,385.991608 1016.059021,399.942383 
	C1020.107788,427.002808 1010.901184,449.917847 994.114929,470.285126 
	C974.535645,494.041351 950.240540,512.184937 924.048706,528.056091 
	C902.552002,541.082275 879.759827,551.249512 856.226562,559.818237 
	C851.284241,561.617737 845.855835,562.432190 840.582092,562.874573 
	C835.082520,563.335876 832.792480,560.846497 833.065186,555.156982 
	C833.481812,546.467957 834.761353,537.806763 834.905518,529.121033 
	C835.204041,511.133270 835.087891,493.136414 834.950989,475.144775 
	C834.897095,468.054535 834.178223,460.971161 834.039612,453.879242 
	C833.872437,445.323364 836.638184,442.275208 844.438904,438.912720 
	C861.354675,431.621399 877.538452,422.873077 890.663025,409.680695 
	C901.038635,399.251404 905.376587,386.653656 899.891113,372.250671 
	C896.309875,362.847534 889.429077,355.791443 881.275513,350.047913 
	C862.509277,336.828522 841.308533,329.220215 819.209290,324.113495 
	C803.756958,320.542847 788.144470,317.459564 772.454346,315.188293 
	C759.647888,313.334473 746.623779,312.962463 733.689941,312.018829 
	C727.609558,311.575226 721.516785,311.278229 715.425110,311.019684 
	C711.957214,310.872528 710.988037,308.918213 710.961304,305.802399 
	C710.934143,302.642090 711.485474,300.064270 715.323364,300.015289 
	C743.397339,299.656677 771.474243,298.967407 799.544922,299.158936 
	C813.317444,299.252930 827.169189,300.328125 840.823425,302.162384 
	C860.923157,304.862549 880.895691,308.537140 900.890259,311.983429 
	C922.683167,315.739655 943.300232,323.184692 962.978638,333.087219 
	C975.417847,339.346832 986.745239,347.371765 996.218018,357.749786 
	C997.419617,359.066071 998.408264,360.576691 999.753540,362.256958 
z"/>
<path fill="#1A2857" opacity="1.000000" stroke="none" 
	d="
M1136.250610,1329.399048 
	C1139.108643,1320.782471 1141.764526,1312.526001 1144.463013,1304.136963 
	C1151.063965,1304.136963 1157.695190,1304.136963 1164.663574,1304.136963 
	C1164.663574,1323.217773 1164.663574,1342.270386 1164.663574,1361.662231 
	C1160.775269,1361.662231 1156.710693,1361.662231 1152.266357,1361.662231 
	C1152.266357,1347.071167 1152.266357,1332.328613 1152.266357,1317.585938 
	C1151.961792,1317.526367 1151.657104,1317.466797 1151.352539,1317.407349 
	C1147.568726,1329.230713 1143.783691,1341.053589 1140.003418,1352.878174 
	C1139.660889,1353.949463 1139.363037,1355.035278 1139.022461,1356.107178 
	C1137.334229,1361.420410 1132.379761,1363.964844 1127.190796,1361.860229 
	C1126.167603,1361.445190 1125.440186,1359.715088 1125.038574,1358.445312 
	C1120.835327,1345.153076 1116.726440,1331.830933 1111.978760,1318.582520 
	C1111.978760,1332.913452 1111.978760,1347.244385 1111.978760,1361.784180 
	C1107.987671,1361.784180 1104.371704,1361.784180 1100.377197,1361.784180 
	C1100.377197,1342.864990 1100.377197,1323.812012 1100.377197,1304.379028 
	C1106.796265,1304.379028 1113.525513,1304.379028 1120.491821,1304.379028 
	C1124.071411,1316.717896 1127.731201,1329.333374 1131.391113,1341.948730 
	C1131.765503,1342.036133 1132.139893,1342.123535 1132.514404,1342.211060 
	C1133.692383,1338.060425 1134.870361,1333.909790 1136.250610,1329.399048 
z"/>
<path fill="#1A2857" opacity="1.000000" stroke="none" 
	d="
M516.000000,1315.994385 
	C516.000000,1311.859253 516.000000,1308.218384 516.000000,1304.291260 
	C520.651672,1304.291260 525.049988,1304.291260 529.727051,1304.291260 
	C529.727051,1323.350220 529.727051,1342.408325 529.727051,1361.733887 
	C525.630493,1361.733887 521.565979,1361.733887 517.059814,1361.733887 
	C517.059814,1353.599854 517.059814,1345.527466 517.059814,1337.233643 
	C509.894623,1337.233643 503.164886,1337.233643 496.171814,1337.233643 
	C496.171814,1345.348999 496.171814,1353.295654 496.171814,1361.620728 
	C491.859314,1361.620728 487.794281,1361.620728 483.359009,1361.620728 
	C483.359009,1342.829834 483.359009,1323.769897 483.359009,1304.354248 
	C487.192780,1304.354248 491.258972,1304.354248 495.767151,1304.354248 
	C495.767151,1311.551392 495.767151,1318.958740 495.767151,1326.679688 
	C502.589844,1326.679688 508.989349,1326.679688 516.000000,1326.679688 
	C516.000000,1323.356689 516.000000,1319.922729 516.000000,1315.994385 
z"/>
<path fill="#1A2857" opacity="1.000000" stroke="none" 
	d="
M994.696045,1334.365723 
	C1003.804016,1347.755859 993.807434,1361.521362 979.425415,1362.868774 
	C974.270264,1363.351685 968.777649,1363.115479 963.786011,1361.844727 
	C954.231628,1359.412598 950.677368,1353.651001 951.184998,1343.000000 
	C953.590332,1343.000000 956.046570,1343.167603 958.471130,1342.961914 
	C962.393555,1342.629272 965.052734,1343.143555 965.202698,1348.149414 
	C965.291443,1351.110718 971.376282,1354.179688 974.749084,1353.684570 
	C981.409851,1352.706909 984.342590,1350.507690 983.835083,1346.013550 
	C983.634094,1344.233887 981.933533,1341.787476 980.322632,1341.154785 
	C974.808716,1338.989258 968.812805,1337.994507 963.404297,1335.629883 
	C954.367310,1331.679443 952.035583,1327.659790 953.091370,1318.404541 
	C953.813049,1312.077881 956.937256,1307.079712 965.982422,1304.490967 
	C973.568542,1302.319824 981.136230,1302.173462 988.223450,1305.876831 
	C994.153748,1308.975708 995.573547,1311.983154 996.876770,1320.998779 
	C993.354980,1320.998779 989.834351,1321.344116 986.443359,1320.831421 
	C985.057800,1320.621948 983.401245,1318.773315 982.815979,1317.295044 
	C980.252625,1310.820801 971.040588,1312.402466 968.048584,1316.010498 
	C965.141724,1319.515869 965.929565,1323.031128 970.206909,1324.960083 
	C973.248901,1326.332275 976.668152,1326.841553 979.804382,1328.036865 
	C984.734314,1329.915405 989.567749,1332.047241 994.696045,1334.365723 
z"/>
<path fill="#1A2857" opacity="1.000000" stroke="none" 
	d="
M415.287720,1364.002441 
	C417.905823,1364.000244 420.071228,1363.932617 422.228851,1364.032837 
	C423.120514,1364.074097 424.611176,1364.258545 424.783051,1364.746582 
	C426.562775,1369.798828 430.781219,1369.874390 434.461029,1368.631348 
	C438.632385,1367.222290 438.243622,1362.971924 437.977722,1359.282715 
	C437.965881,1359.118286 437.920532,1358.956177 438.001465,1359.400146 
	C433.268433,1359.918823 428.141724,1361.862671 424.074738,1360.542358 
	C419.902710,1359.187866 415.630981,1355.284668 413.408630,1351.360962 
	C408.411713,1342.538574 410.901520,1329.925659 418.626495,1323.893677 
	C423.965149,1319.724976 432.888489,1319.973511 438.449829,1324.577759 
	C440.820679,1317.723267 446.471924,1322.534424 451.000000,1320.395996 
	C451.000000,1331.620117 451.105438,1342.035767 450.954742,1352.447754 
	C450.881439,1357.512451 450.894745,1362.700562 449.770905,1367.579834 
	C449.149139,1370.279297 446.759949,1373.560547 444.304169,1374.671875 
	C435.290131,1378.750977 425.942474,1379.513794 417.065247,1373.967896 
	C412.892761,1371.361328 411.955139,1366.409302 415.287720,1364.002441 
M434.437683,1351.098145 
	C439.343903,1347.091919 440.210510,1341.879761 437.855103,1336.442139 
	C436.769623,1333.936401 434.441956,1331.148560 432.021179,1330.242432 
	C428.767151,1329.024780 425.907440,1331.513916 425.152161,1334.835938 
	C424.369232,1338.279663 423.812439,1342.023438 424.332916,1345.457764 
	C425.161255,1350.923706 427.816406,1352.296265 434.437683,1351.098145 
z"/>
<path fill="#1A2857" opacity="1.000000" stroke="none" 
	d="
M1053.004395,1306.213989 
	C1054.113525,1305.155029 1055.213989,1304.087402 1056.325317,1304.075684 
	C1067.976318,1303.953491 1079.629028,1304.000244 1091.640381,1304.000244 
	C1091.640381,1307.185181 1091.640381,1310.250000 1091.640381,1313.763428 
	C1083.463013,1313.763428 1075.053711,1313.763428 1066.324951,1313.763428 
	C1066.324951,1318.252075 1066.324951,1322.317749 1066.324951,1326.828613 
	C1073.948486,1326.828613 1081.688721,1326.828613 1089.710571,1326.828613 
	C1089.710571,1330.320190 1089.710571,1333.387085 1089.710571,1336.896484 
	C1081.984131,1336.896484 1074.244507,1336.896484 1066.255981,1336.896484 
	C1066.255981,1342.058594 1066.255981,1346.789917 1066.255981,1351.961670 
	C1075.093140,1351.961670 1083.833496,1351.961670 1092.780884,1351.961670 
	C1092.780884,1355.463013 1092.780884,1358.527344 1092.780884,1361.796143 
	C1079.628174,1361.796143 1066.682495,1361.796143 1053.000610,1361.796143 
	C1053.000610,1343.499634 1053.000610,1325.097656 1053.004395,1306.213989 
z"/>
<path fill="#1A2857" opacity="1.000000" stroke="none" 
	d="
M294.163239,1332.576416 
	C300.264893,1320.756348 307.188965,1318.473389 320.928040,1323.557373 
	C320.928040,1317.227539 320.928040,1310.969360 320.928040,1304.356689 
	C325.183838,1304.356689 329.246490,1304.356689 333.657318,1304.356689 
	C333.657318,1323.185303 333.657318,1342.226685 333.657318,1362.032959 
	C329.606812,1360.863892 324.664337,1364.433960 320.727600,1359.204468 
	C315.890411,1363.032593 310.115479,1364.209473 303.808716,1361.919922 
	C297.481903,1359.622925 293.013184,1353.510254 293.059143,1346.646484 
	C293.089722,1342.082520 293.683929,1337.522339 294.163239,1332.576416 
M316.383514,1330.050049 
	C312.518646,1328.771362 307.732513,1330.432251 307.201324,1334.187378 
	C306.470001,1339.357300 306.334229,1344.830933 307.238312,1349.945435 
	C308.005859,1354.287476 314.920532,1355.586548 318.072327,1352.343262 
	C323.101746,1347.168213 323.828033,1334.755981 316.383514,1330.050049 
z"/>
<path fill="#1A2857" opacity="1.000000" stroke="none" 
	d="
M621.661804,1362.019043 
	C618.652954,1361.423096 616.056763,1360.842651 613.152405,1360.193359 
	C613.152405,1365.154297 613.152405,1370.806152 613.152405,1376.722412 
	C608.660278,1376.722412 604.598938,1376.722412 600.265991,1376.722412 
	C600.265991,1358.321777 600.265991,1339.948730 600.265991,1321.287109 
	C604.004456,1321.287109 607.754333,1321.287109 611.772949,1321.287109 
	C611.883667,1322.288696 612.005981,1323.395020 612.141418,1324.620117 
	C612.602600,1324.418457 613.082031,1324.305786 613.443909,1324.035767 
	C619.474487,1319.534424 626.574402,1319.497192 632.477539,1322.510864 
	C638.417725,1325.543213 641.090454,1331.932983 641.056335,1339.075562 
	C641.027832,1345.040283 640.334717,1350.617310 636.843933,1355.759399 
	C633.166626,1361.176270 628.203430,1362.784180 621.661804,1362.019043 
M618.584717,1329.890381 
	C611.644592,1334.146729 609.668579,1344.979980 614.699463,1351.191772 
	C617.445068,1354.582153 621.085388,1354.859375 624.540344,1351.941650 
	C628.133545,1348.906860 629.420776,1339.248169 627.027710,1333.974609 
	C625.462280,1330.524658 623.351929,1328.190308 618.584717,1329.890381 
z"/>
<path fill="#1A2857" opacity="1.000000" stroke="none" 
	d="
M654.958191,1334.000000 
	C652.509277,1334.000000 650.524780,1334.000000 648.576294,1334.000000 
	C647.627563,1326.152710 652.141113,1320.846069 661.602356,1320.226318 
	C666.414062,1319.911133 671.496399,1321.416504 676.226074,1322.855835 
	C680.360474,1324.114258 681.964172,1327.565063 682.078308,1332.050659 
	C682.329224,1341.908936 683.007202,1351.756470 683.520508,1361.798828 
	C679.892883,1361.798828 676.104126,1361.798828 672.221558,1361.798828 
	C672.086426,1360.660034 671.957520,1359.573486 671.779724,1358.074951 
	C671.034607,1358.670898 670.520264,1359.017822 670.081543,1359.442871 
	C663.674011,1365.649536 648.859680,1364.548706 646.547241,1353.238403 
	C645.147583,1346.392700 650.739929,1338.196655 656.568726,1337.074463 
	C660.866516,1336.246948 665.280273,1336.022095 669.707092,1335.521484 
	C670.670898,1332.006226 670.187561,1328.909180 665.997742,1328.104858 
	C661.678345,1327.275879 661.032715,1330.682617 660.724854,1334.000000 
	C658.729797,1334.000000 657.076233,1334.000000 654.958191,1334.000000 
M661.019104,1345.472046 
	C658.720642,1347.461670 657.649536,1350.168335 660.031006,1352.219727 
	C661.559387,1353.536133 665.057861,1354.375244 666.599731,1353.511597 
	C670.523987,1351.313721 670.494446,1347.177490 669.489929,1342.346191 
	C666.678772,1343.266113 664.146973,1344.094604 661.019104,1345.472046 
z"/>
<path fill="#1A2857" opacity="1.000000" stroke="none" 
	d="
M694.193420,1361.995361 
	C693.142883,1360.882324 692.085632,1359.777710 692.074829,1358.663208 
	C691.956238,1346.357178 692.000244,1334.049805 692.000244,1321.371460 
	C695.823853,1321.371460 699.553101,1321.371460 703.746521,1321.371460 
	C703.864136,1322.229370 704.022217,1323.382446 704.239624,1324.968506 
	C709.699646,1320.427734 715.515137,1318.594116 722.023315,1321.065063 
	C726.605408,1322.804565 729.806213,1326.138916 729.927002,1331.200317 
	C730.168213,1341.304932 729.998535,1351.419312 729.998535,1361.762695 
	C725.573486,1361.762695 721.512695,1361.762695 717.000000,1361.762695 
	C717.000000,1353.179199 716.790405,1344.734863 717.088135,1336.308594 
	C717.237671,1332.077515 715.595642,1330.085083 711.586548,1330.036011 
	C707.467773,1329.985474 705.129578,1332.311890 705.050598,1336.332642 
	C704.887329,1344.642456 705.001343,1352.957764 705.001343,1361.999390 
	C701.490662,1361.999390 698.081665,1361.999390 694.193420,1361.995361 
z"/>
<path fill="#1A2857" opacity="1.000000" stroke="none" 
	d="
M207.625061,1332.848511 
	C210.059769,1325.253174 216.835114,1320.147827 224.560165,1320.000000 
	C234.613342,1319.807373 240.433517,1323.270752 243.055344,1331.592285 
	C244.344009,1335.682373 244.852600,1340.018066 245.830978,1344.815186 
	C236.029510,1344.815186 227.280380,1344.815186 216.660934,1344.815186 
	C219.237991,1348.601929 220.609177,1351.909180 223.075165,1353.748901 
	C224.523438,1354.829224 229.434235,1354.262939 229.835770,1353.258057 
	C232.170380,1347.414795 236.854431,1349.219238 240.966919,1349.006470 
	C241.783310,1348.964233 242.603760,1349.000366 243.803101,1349.000366 
	C244.400314,1354.838135 241.202087,1358.391602 236.978806,1360.933960 
	C230.966934,1364.552856 224.199066,1363.722290 217.899170,1362.211670 
	C209.092453,1360.099854 206.612518,1352.732788 206.118546,1344.780762 
	C205.880188,1340.943359 206.895950,1337.028198 207.625061,1332.848511 
M222.074753,1330.392456 
	C220.867447,1332.327393 219.660141,1334.262207 218.180084,1336.634277 
	C223.517410,1336.634277 227.705292,1336.634277 231.953232,1336.634277 
	C230.297348,1329.066528 228.721512,1327.971191 222.074753,1330.392456 
z"/>
<path fill="#1A2857" opacity="1.000000" stroke="none" 
	d="
M275.693298,1361.855591 
	C275.120758,1360.648071 274.954742,1359.560669 274.779327,1358.411621 
	C267.906433,1363.626709 260.238098,1364.503052 254.484009,1360.806641 
	C251.157303,1358.669678 248.539139,1351.556885 250.130432,1346.984863 
	C254.120773,1335.519775 264.001404,1335.708496 273.825043,1336.004395 
	C274.146118,1332.105835 273.261322,1328.868896 269.473145,1328.138550 
	C265.607117,1327.393311 264.293121,1330.509155 263.682159,1333.780518 
	C259.819794,1333.780518 256.041595,1333.780518 252.284378,1333.780518 
	C251.750122,1326.959106 253.919617,1323.363525 260.109955,1321.429077 
	C268.282471,1318.875244 276.389526,1318.762939 282.668518,1325.479370 
	C284.718872,1327.672729 285.529510,1331.513306 285.863770,1334.709717 
	C286.380432,1339.650024 285.932343,1344.685547 286.021637,1349.678345 
	C286.091644,1353.592163 286.355927,1357.502441 286.559448,1361.975708 
	C283.302338,1361.975708 279.701050,1361.975708 275.693298,1361.855591 
M262.046234,1348.750977 
	C262.201447,1353.005493 264.856384,1354.366455 268.554504,1353.929688 
	C272.041992,1353.517944 274.237915,1348.521362 273.452728,1342.799683 
	C269.234528,1343.510742 264.775055,1343.337402 262.046234,1348.750977 
z"/>
<path fill="#1A2857" opacity="1.000000" stroke="none" 
	d="
M890.000122,1362.000000 
	C887.881226,1362.000000 886.237610,1362.000000 884.297852,1362.000000 
	C884.297852,1348.368896 884.297852,1334.973267 884.297852,1321.287842 
	C888.008728,1321.287842 891.764343,1321.287842 895.772583,1321.287842 
	C895.886780,1322.287354 896.012817,1323.390991 896.098022,1324.136841 
	C899.071289,1322.895508 902.034058,1321.320801 905.188354,1320.407959 
	C913.300049,1318.060669 921.548401,1323.650391 921.902954,1332.114258 
	C922.312500,1341.890259 921.998230,1351.696533 921.998230,1361.743286 
	C917.610779,1361.743286 913.546326,1361.743286 909.000000,1361.743286 
	C909.000000,1353.536743 908.943787,1345.426636 909.025024,1337.317993 
	C909.062500,1333.579468 908.615417,1330.319458 903.930054,1330.016846 
	C899.546021,1329.733643 897.151917,1331.589966 896.953979,1336.255981 
	C896.598572,1344.638062 896.001404,1353.009888 895.468872,1362.000000 
	C894.000183,1362.000000 892.237793,1362.000000 890.000122,1362.000000 
z"/>
<path fill="#1A2857" opacity="1.000000" stroke="none" 
	d="
M378.794373,1323.705078 
	C384.174896,1320.673462 389.380280,1318.613525 395.239410,1321.095093 
	C399.117737,1322.737549 403.420166,1327.388916 403.150452,1332.401001 
	C402.633270,1342.011475 403.000000,1351.669556 403.000000,1361.653564 
	C399.127106,1361.653564 395.396912,1361.653564 390.999847,1361.653564 
	C390.999847,1353.934204 391.099365,1346.020264 390.970642,1338.109985 
	C390.851929,1330.815552 386.418762,1327.562744 381.202118,1331.146973 
	C379.468903,1332.337769 378.245575,1335.376953 378.141785,1337.633301 
	C377.776886,1345.569336 378.000031,1353.532471 378.000031,1361.740601 
	C373.620239,1361.740601 369.559052,1361.740601 365.246826,1361.740601 
	C365.246826,1348.271729 365.246826,1334.888306 365.246826,1321.251709 
	C368.927338,1321.251709 372.525085,1321.251709 376.102203,1321.251709 
	C376.861389,1322.110229 377.690277,1323.047607 378.794373,1323.705078 
z"/>
<path fill="#1A2857" opacity="1.000000" stroke="none" 
	d="
M1033.173340,1315.000244 
	C1029.280273,1314.531128 1030.013306,1317.000732 1030.010742,1318.855957 
	C1029.991211,1332.989258 1030.000000,1347.122559 1030.000000,1361.627808 
	C1025.848389,1361.627808 1021.785461,1361.627808 1017.309326,1361.627808 
	C1017.309326,1346.510498 1017.309326,1331.127930 1017.309326,1315.313110 
	C1011.533142,1315.313110 1006.130188,1315.313110 1000.365845,1315.313110 
	C1000.365845,1311.499756 1000.365845,1308.104980 1000.365845,1304.348999 
	C1015.500183,1304.348999 1030.881226,1304.348999 1046.631836,1304.348999 
	C1046.631836,1307.498535 1046.631836,1310.895386 1046.631836,1315.000000 
	C1042.482544,1315.000000 1038.068970,1315.000000 1033.173340,1315.000244 
z"/>
<path fill="#1A2857" opacity="1.000000" stroke="none" 
	d="
M586.974304,1333.000000 
	C583.691223,1333.301025 581.148499,1333.180786 579.519043,1330.136108 
	C578.990112,1329.147827 577.208740,1327.990967 576.318359,1328.209229 
	C574.446594,1328.667969 572.785400,1329.986206 571.037781,1330.951660 
	C572.213196,1332.300781 573.136780,1334.291870 574.614136,1334.871338 
	C578.178223,1336.269653 582.077820,1336.791138 585.700134,1338.068726 
	C590.065063,1339.608154 593.500732,1342.379517 593.956848,1347.380005 
	C594.454956,1352.841675 592.578308,1357.156250 587.587585,1360.116333 
	C580.854614,1364.110229 573.799072,1363.855713 566.787842,1361.810181 
	C560.449829,1359.961182 558.259460,1356.252441 558.219727,1349.198853 
	C562.011719,1349.198853 565.805420,1349.198853 569.588135,1349.198853 
	C572.462158,1354.899780 575.303650,1356.367554 579.163330,1353.913696 
	C580.307007,1353.186523 581.885071,1351.634277 581.726196,1350.730347 
	C581.504028,1349.466309 580.040588,1347.913452 578.755676,1347.438843 
	C575.000732,1346.051880 570.935486,1345.471191 567.239685,1343.965820 
	C560.664307,1341.287720 558.549316,1338.065430 559.017212,1332.414185 
	C559.392639,1327.879028 561.963440,1322.848022 568.707458,1321.851807 
	C573.388611,1321.160278 578.304199,1320.515381 582.907166,1321.215698 
	C588.997559,1322.142578 592.145569,1326.594482 592.403564,1333.000000 
	C590.736938,1333.000000 589.075623,1333.000000 586.974304,1333.000000 
z"/>
<path fill="#1A2857" opacity="1.000000" stroke="none" 
	d="
M201.571167,1351.413574 
	C201.913635,1355.029907 201.913635,1358.312622 201.913635,1361.787476 
	C189.525818,1361.787476 177.472366,1361.787476 165.209503,1361.787476 
	C165.209503,1342.530884 165.209503,1323.486816 165.209503,1304.221191 
	C169.460236,1304.221191 173.521271,1304.221191 177.998672,1304.221191 
	C177.998672,1319.804810 177.998672,1335.191040 177.998672,1351.080078 
	C186.014801,1351.080078 193.621735,1351.080078 201.571167,1351.413574 
z"/>
<path fill="#1A2857" opacity="1.000000" stroke="none" 
	d="
M832.985718,1345.271240 
	C835.587036,1351.724854 831.494995,1359.291504 824.953369,1361.402954 
	C818.248352,1363.567261 811.315125,1364.471191 804.539307,1360.891479 
	C799.805969,1358.390747 797.822083,1354.622437 798.052185,1349.000000 
	C800.524231,1349.000000 802.824768,1348.982422 805.124878,1349.005005 
	C807.431885,1349.027588 809.483337,1348.521484 810.792358,1351.840454 
	C811.429199,1353.455078 815.357544,1354.344482 817.832031,1354.423096 
	C819.095032,1354.463135 820.437988,1351.988892 821.744751,1350.651001 
	C820.549072,1349.648315 819.504395,1348.268433 818.127869,1347.717163 
	C814.713562,1346.349731 811.147583,1345.360718 807.642456,1344.219971 
	C800.427185,1341.871460 798.562622,1339.156494 799.000488,1331.637573 
	C799.252502,1327.310181 804.320496,1321.847290 809.211975,1321.063354 
	C814.965576,1320.141235 820.713440,1319.546021 826.204346,1322.614746 
	C830.153320,1324.821533 832.560730,1327.671387 831.820007,1332.938599 
	C827.188538,1332.354370 821.884827,1335.330078 818.356934,1329.289917 
	C817.871765,1328.458984 814.833923,1328.643066 813.210999,1329.131592 
	C812.241821,1329.423462 810.888550,1331.882080 811.158691,1332.225586 
	C812.105774,1333.429810 813.573364,1334.432251 815.041565,1334.977783 
	C818.652283,1336.319214 822.610291,1336.910767 825.974426,1338.671631 
	C828.653137,1340.073730 830.661133,1342.757324 832.985718,1345.271240 
z"/>
<path fill="#1A2857" opacity="1.000000" stroke="none" 
	d="
M773.543274,1321.012451 
	C779.830994,1321.075806 786.200134,1319.721436 790.492004,1325.151367 
	C792.784973,1328.052368 794.203186,1331.644897 796.484131,1335.771973 
	C790.737244,1335.771973 786.626465,1335.771973 782.519531,1335.771973 
	C782.025757,1334.255127 781.838928,1332.559937 780.991394,1331.314087 
	C779.291016,1328.814575 776.946045,1327.717285 774.808411,1330.771729 
	C771.189453,1335.942627 771.180664,1346.841309 774.735474,1352.128784 
	C776.352051,1354.533203 779.954834,1355.416016 780.615112,1352.397217 
	C782.122437,1345.505615 786.892395,1347.120361 791.237061,1347.004517 
	C792.374390,1346.974243 793.513245,1347.000000 794.615723,1347.000000 
	C795.413147,1355.755493 789.493042,1362.266846 781.185364,1363.065796 
	C762.964539,1364.817871 757.253296,1349.747803 759.654297,1336.489014 
	C761.166504,1328.139038 765.446533,1323.420654 773.543274,1321.012451 
z"/>
<path fill="#1A2857" opacity="1.000000" stroke="none" 
	d="
M356.000000,1335.006592 
	C356.000000,1344.132080 356.000000,1352.759399 356.000000,1361.692383 
	C351.721558,1361.692383 347.660156,1361.692383 343.295593,1361.692383 
	C343.295593,1348.377808 343.295593,1334.997314 343.295593,1321.307373 
	C347.281403,1321.307373 351.342316,1321.307373 356.000000,1321.307373 
	C356.000000,1325.655273 356.000000,1330.081665 356.000000,1335.006592 
z"/>
<path fill="#1A2857" opacity="1.000000" stroke="none" 
	d="
M550.763306,1361.953125 
	C546.666077,1361.991455 543.046753,1361.991455 539.219971,1361.991455 
	C539.219971,1348.216797 539.219971,1334.833740 539.219971,1321.225098 
	C543.451721,1321.225098 547.512207,1321.225098 551.241211,1321.225098 
	C551.241211,1334.917969 551.241211,1348.416382 550.763306,1361.953125 
z"/>
<path fill="#1A2857" opacity="1.000000" stroke="none" 
	d="
M752.000000,1355.904785 
	C752.000000,1358.040771 752.000000,1359.689453 752.000000,1361.668579 
	C748.096313,1361.668579 744.367493,1361.668579 740.316223,1361.668579 
	C740.316223,1348.422607 740.316223,1335.039062 740.316223,1321.326660 
	C743.908447,1321.326660 747.637634,1321.326660 752.000000,1321.326660 
	C752.000000,1332.604370 752.000000,1344.010864 752.000000,1355.904785 
z"/>
<path fill="#1A2857" opacity="1.000000" stroke="none" 
	d="
M873.592163,1321.435791 
	C873.920288,1335.047241 873.920288,1348.311157 873.920288,1361.785767 
	C869.986572,1361.785767 866.372925,1361.785767 862.379028,1361.785767 
	C862.379028,1348.415894 862.379028,1334.916016 862.379028,1321.088257 
	C866.031982,1321.088257 869.648010,1321.088257 873.592163,1321.435791 
z"/>
<path fill="#1A2857" opacity="1.000000" stroke="none" 
	d="
M1186.382812,1361.852539 
	C1176.294922,1362.052124 1171.027954,1355.697998 1174.118896,1347.651733 
	C1175.898315,1343.019775 1179.283447,1341.368896 1185.836060,1342.008057 
	C1190.626465,1342.475098 1193.098633,1345.751343 1193.842773,1349.931030 
	C1194.621216,1354.304077 1193.338745,1358.327393 1188.918945,1360.599976 
	C1188.200439,1360.969360 1187.489990,1361.354736 1186.382812,1361.852539 
M1176.873169,1354.391357 
	C1177.670166,1355.519775 1178.467041,1356.648315 1180.000000,1358.818970 
	C1180.000000,1355.387329 1180.000000,1353.558960 1180.000000,1351.730591 
	C1180.000000,1349.944824 1180.000000,1348.159180 1180.000000,1346.114990 
	C1182.890503,1346.114990 1185.367676,1346.114990 1188.264282,1346.114990 
	C1185.211670,1343.299072 1182.278687,1343.391357 1179.485474,1345.253540 
	C1176.473755,1347.261353 1175.314697,1350.207764 1176.873169,1354.391357 
M1189.956299,1347.455444 
	C1189.339233,1347.433228 1188.722168,1347.411133 1188.105103,1347.389038 
	C1188.105103,1350.560181 1188.105103,1353.731323 1188.105103,1356.902466 
	C1188.797852,1356.941895 1189.490723,1356.981445 1190.183472,1357.020874 
	C1190.315430,1354.041260 1190.447388,1351.061768 1189.956299,1347.455444 
z"/>
<path fill="#1A2857" opacity="1.000000" stroke="none" 
	d="
M861.000000,1310.924805 
	C861.000000,1308.483887 861.000000,1306.518066 861.000000,1304.277466 
	C865.658875,1304.277466 870.050537,1304.277466 874.723877,1304.277466 
	C874.723877,1307.670532 874.723877,1311.062622 874.723877,1314.999390 
	C871.130859,1314.999390 867.517212,1314.795410 863.938416,1315.061035 
	C860.819519,1315.292480 860.825745,1313.538696 861.000000,1310.924805 
z"/>
<path fill="#1A2857" opacity="1.000000" stroke="none" 
	d="
M739.000000,1309.025146 
	C739.000000,1307.240234 739.000000,1305.930054 739.000000,1304.310303 
	C743.593750,1304.310303 747.984619,1304.310303 752.690369,1304.310303 
	C752.690369,1307.600830 752.690369,1310.994141 752.690369,1314.697998 
	C748.389832,1314.697998 743.998718,1314.697998 739.000000,1314.697998 
	C739.000000,1313.012451 739.000000,1311.256226 739.000000,1309.025146 
z"/>
<path fill="#1A2857" opacity="1.000000" stroke="none" 
	d="
M348.064117,1304.000000 
	C350.841644,1304.000000 353.139557,1304.000000 355.717316,1304.000000 
	C355.717316,1307.654785 355.717316,1311.046631 355.717316,1314.722412 
	C351.674072,1314.722412 347.616150,1314.722412 343.276215,1314.722412 
	C343.276215,1311.331299 343.276215,1307.940063 343.276215,1304.213379 
	C344.709137,1304.142456 346.146820,1304.071167 348.064117,1304.000000 
z"/>
<path fill="#1A2857" opacity="1.000000" stroke="none" 
	d="
M542.155823,1314.999756 
	C540.787109,1314.213379 539.243774,1313.513916 539.125916,1312.625244 
	C538.780762,1310.022339 539.003174,1307.343994 539.003174,1304.347900 
	C543.181458,1304.347900 547.240417,1304.347900 551.652344,1304.347900 
	C551.652344,1307.525391 551.652344,1310.916504 551.652344,1315.000000 
	C548.790344,1315.000000 545.711426,1315.000000 542.155823,1314.999756 
z"/>
<path fill="#FFFFFF" opacity="1.000000" stroke="none" 
	d="
M817.994141,1046.000000 
	C807.191223,1046.000000 796.887207,1046.000000 786.292603,1046.000000 
	C786.292603,1012.686951 786.292603,979.632751 786.292603,946.000000 
	C799.017578,946.000000 811.781738,945.834229 824.537354,946.091919 
	C828.868408,946.179382 833.292969,946.921997 837.473999,948.086121 
	C847.041504,950.750061 854.160034,956.767212 857.914978,965.953369 
	C864.628601,982.377991 866.524292,999.390625 860.882141,1016.455078 
	C856.334045,1030.210571 848.433289,1041.556763 833.234802,1045.127075 
	C828.513062,1046.236328 823.417480,1045.753906 817.994141,1046.000000 
z"/>
<path fill="#FFFFFF" opacity="1.000000" stroke="none" 
	d="
M434.143494,1351.382324 
	C427.816406,1352.296265 425.161255,1350.923706 424.332916,1345.457764 
	C423.812439,1342.023438 424.369232,1338.279663 425.152161,1334.835938 
	C425.907440,1331.513916 428.767151,1329.024780 432.021179,1330.242432 
	C434.441956,1331.148560 436.769623,1333.936401 437.855103,1336.442139 
	C440.210510,1341.879761 439.343903,1347.091919 434.143494,1351.382324 
z"/>
<path fill="#FFFFFF" opacity="1.000000" stroke="none" 
	d="
M316.697540,1330.281250 
	C323.828033,1334.755981 323.101746,1347.168213 318.072327,1352.343262 
	C314.920532,1355.586548 308.005859,1354.287476 307.238312,1349.945435 
	C306.334229,1344.830933 306.470001,1339.357300 307.201324,1334.187378 
	C307.732513,1330.432251 312.518646,1328.771362 316.697540,1330.281250 
z"/>
<path fill="#FFFFFF" opacity="1.000000" stroke="none" 
	d="
M618.860840,1329.617798 
	C623.351929,1328.190308 625.462280,1330.524658 627.027710,1333.974609 
	C629.420776,1339.248169 628.133545,1348.906860 624.540344,1351.941650 
	C621.085388,1354.859375 617.445068,1354.582153 614.699463,1351.191772 
	C609.668579,1344.979980 611.644592,1334.146729 618.860840,1329.617798 
z"/>
<path fill="#FFFFFF" opacity="1.000000" stroke="none" 
	d="
M661.317139,1345.197632 
	C664.146973,1344.094604 666.678772,1343.266113 669.489929,1342.346191 
	C670.494446,1347.177490 670.523987,1351.313721 666.599731,1353.511597 
	C665.057861,1354.375244 661.559387,1353.536133 660.031006,1352.219727 
	C657.649536,1350.168335 658.720642,1347.461670 661.317139,1345.197632 
z"/>
<path fill="#FFFFFF" opacity="1.000000" stroke="none" 
	d="
M222.375671,1330.134277 
	C228.721512,1327.971191 230.297348,1329.066528 231.953232,1336.634277 
	C227.705292,1336.634277 223.517410,1336.634277 218.180084,1336.634277 
	C219.660141,1334.262207 220.867447,1332.327393 222.375671,1330.134277 
z"/>
<path fill="#FFFFFF" opacity="1.000000" stroke="none" 
	d="
M262.237274,1348.406006 
	C264.775055,1343.337402 269.234528,1343.510742 273.452728,1342.799683 
	C274.237915,1348.521362 272.041992,1353.517944 268.554504,1353.929688 
	C264.856384,1354.366455 262.201447,1353.005493 262.237274,1348.406006 
z"/>
<path fill="#FFFFFF" opacity="1.000000" stroke="none" 
	d="
M1176.591309,1354.108887 
	C1175.314697,1350.207764 1176.473755,1347.261353 1179.485474,1345.253540 
	C1182.278687,1343.391357 1185.211670,1343.299072 1188.264282,1346.114990 
	C1185.367676,1346.114990 1182.890503,1346.114990 1180.000000,1346.114990 
	C1180.000000,1348.159180 1180.000000,1349.944824 1180.000000,1351.730591 
	C1180.000000,1353.558960 1180.000000,1355.387329 1180.000000,1358.818970 
	C1178.467041,1356.648315 1177.670166,1355.519775 1176.591309,1354.108887 
z"/>
<path fill="#FFFFFF" opacity="1.000000" stroke="none" 
	d="
M1190.267822,1347.768799 
	C1190.447388,1351.061768 1190.315430,1354.041260 1190.183472,1357.020874 
	C1189.490723,1356.981445 1188.797852,1356.941895 1188.105103,1356.902466 
	C1188.105103,1353.731323 1188.105103,1350.560181 1188.105103,1347.389038 
	C1188.722168,1347.411133 1189.339233,1347.433228 1190.267822,1347.768799 
z"/>
</svg>